<svg xmlns="http://www.w3.org/2000/svg" viewBox="0 0 432.28 401.95"><g id="OBJECTS"><path d="M430.89,407.44H51.52a8.9,8.9,0,0,1-8.9-8.9h0a8.89,8.89,0,0,1,8.9-8.9H430.89a8.9,8.9,0,0,1,8.9,8.9h0A8.91,8.91,0,0,1,430.89,407.44Z" transform="translate(-42.62 -5.49)" style="fill:#e6edff"/><path d="M434.18,232.91l-.48-.29c-11.51-6.7-25.08-9.28-38.16-12.51-12.15-3-25.79-7-35.12-15.88-11.34-10.76-9.76-25.58-5.4-39.06,4.58-14.15,8.9-28.39,6.88-43.41A83.94,83.94,0,0,0,339.64,75.3c-19-19.92-48.42-30.48-76.61-27.49-37.83,4-68.9,30.09-92.49,58.34-15.48,18.54-24.61,39.59-42.27,57.2-17.45,17.4-37.05,33.08-51.74,52.8C57,242.39,47.46,275.87,53.8,307.4s29.53,60.33,61.28,71.71c20.22,7.25,42.4,7.4,64,7.46,44.92.11,89.9.23,134.67-3.18,29.46-2.24,59.32-6.14,86.16-17.85s50.61-32.24,59.41-58.92C468.08,280.11,459,247.7,434.18,232.91Z" transform="translate(-42.62 -5.49)" style="fill:#bfd2ff"/><path d="M73.27,170.38a15,15,0,0,0-3.86-6.62l-3-2.35a15,15,0,0,0-7.57-2h-.74a11.35,11.35,0,0,0-5.78,1.3,11.14,11.14,0,0,0-4.83,3.1,11.26,11.26,0,0,0-3.1,4.82,11.29,11.29,0,0,0-1.29,5.78c.17,1.33.35,2.66.53,4A15,15,0,0,0,47.46,185l3,2.35a14.87,14.87,0,0,0,7.57,2h.74a11.29,11.29,0,0,0,5.78-1.29,11.14,11.14,0,0,0,4.82-3.1,11.26,11.26,0,0,0,3.11-4.83,11.34,11.34,0,0,0,1.29-5.78Z" transform="translate(-42.62 -5.49)" style="fill:#e6edff"/><circle cx="399.87" cy="149.72" r="32.41" style="fill:#bfd2ff"/><path d="M321.22,5.71a22.62,22.62,0,0,0-4,1.21,3.4,3.4,0,0,1,.23.3A3.59,3.59,0,1,1,311.33,11a3.24,3.24,0,0,1-.19-.37,22.18,22.18,0,0,0-2.9,3.07c.13,0,.26.09.38.15a3.6,3.6,0,1,1-3.38,6.35,4.13,4.13,0,0,1-.38-.25,21.91,21.91,0,0,0-1,4.14,3.25,3.25,0,0,1,.45-.06,3.6,3.6,0,0,1,.25,7.19,4.38,4.38,0,0,1-.51,0,21.77,21.77,0,0,0,1.22,4.12,3.15,3.15,0,0,1,.41-.31,3.6,3.6,0,0,1,3.81,6.1,3.27,3.27,0,0,1-.5.24,22.12,22.12,0,0,0,3.15,3,3.11,3.11,0,0,1,.21-.5,3.59,3.59,0,0,1,6.35,3.37,3.49,3.49,0,0,1-.33.49,21.35,21.35,0,0,0,4.23,1,3.43,3.43,0,0,1-.07-.56,3.59,3.59,0,0,1,7.18-.26,3,3,0,0,1,0,.6,21.65,21.65,0,0,0,4.17-1.27,2.94,2.94,0,0,1-.35-.44,3.59,3.59,0,1,1,6.09-3.82,4.09,4.09,0,0,1,.26.51,22.09,22.09,0,0,0,2.95-3.16,4.34,4.34,0,0,1-.5-.2,3.6,3.6,0,0,1,3.38-6.36,4.84,4.84,0,0,1,.44.3,22.21,22.21,0,0,0,1-4.19,3.85,3.85,0,0,1-.49.07,3.6,3.6,0,1,1,.22-7.16,21.54,21.54,0,0,0-1.24-4.07c-.12.09-.22.19-.35.27a3.6,3.6,0,0,1-3.81-6.1,2.69,2.69,0,0,1,.38-.19,21.61,21.61,0,0,0-3.09-2.88,2.75,2.75,0,0,1-.15.36,3.59,3.59,0,1,1-6.35-3.37,3.78,3.78,0,0,1,.22-.33,20.56,20.56,0,0,0-4.1-1,2.08,2.08,0,0,1,.05.36,3.59,3.59,0,1,1-7.18.25A2.55,2.55,0,0,1,321.22,5.71ZM325,14.59A12.51,12.51,0,1,1,313,27.53,12.51,12.51,0,0,1,325,14.59Z" transform="translate(-42.62 -5.49)" style="fill:#e6edff"/><ellipse cx="47.63" cy="91.87" rx="40.48" ry="37.15" style="fill:#e6edff"/><path d="M89.29,97.93,57.72,87.83a28.28,28.28,0,0,0-1.87,10.1c0,16.84,15.1,30.69,33.44,30.69a35.78,35.78,0,0,0,17.21-4.37Z" transform="translate(-42.62 -5.49)" style="fill:#628aec"/><path d="M91,97.36l17.43,26.19a32.15,32.15,0,0,0,11.74-11.17,28.79,28.79,0,0,0,4.27-15Z" transform="translate(-42.62 -5.49)" style="fill:#bfd2ff"/><path d="M91.21,95.88l33.44-.42a28.5,28.5,0,0,0-2.91-12.11,31,31,0,0,0-7.9-10.06Z" transform="translate(-42.62 -5.49)" style="fill:#fefeff"/><rect x="132.47" y="55.54" width="12.11" height="29.1" style="fill:#628aec"/><rect x="151.19" y="41.3" width="12.11" height="43.34" style="fill:#628aec"/><rect x="169.9" y="21.64" width="12.11" height="62.99" style="fill:#628aec"/><rect x="188.62" y="49.2" width="12.11" height="35.44" style="fill:#628aec"/><polyline points="125.99 22.25 125.99 84.37 208.72 84.37" style="fill:none;stroke:#628aec;stroke-miterlimit:10;stroke-width:0.876261px"/><path d="M354.54,46.44a42.37,42.37,0,0,0-7.92,2.38,5.39,5.39,0,0,1,.45.59,7.07,7.07,0,1,1-12,7.5,6.16,6.16,0,0,1-.36-.73,43.42,43.42,0,0,0-5.7,6,7.49,7.49,0,0,1,.73.3A7.07,7.07,0,1,1,323.13,75a8.14,8.14,0,0,1-.75-.5,42.35,42.35,0,0,0-1.93,8.14,6.28,6.28,0,0,1,.87-.12,7.07,7.07,0,1,1,.5,14.13,6.63,6.63,0,0,1-1-.06,42.31,42.31,0,0,0,2.41,8.1,6,6,0,0,1,.79-.62,7.07,7.07,0,1,1,7.5,12,6.34,6.34,0,0,1-1,.48,43.36,43.36,0,0,0,6.19,5.85,6.14,6.14,0,0,1,.4-1A7.07,7.07,0,0,1,349.62,128a6.41,6.41,0,0,1-.64,1,42,42,0,0,0,8.32,1.95,6.62,6.62,0,0,1-.15-1.1,7.07,7.07,0,1,1,14.13-.51,7.5,7.5,0,0,1-.08,1.17,42.33,42.33,0,0,0,8.18-2.48,7.36,7.36,0,0,1-.68-.88,7.07,7.07,0,1,1,12-7.5,6.28,6.28,0,0,1,.49,1,42.75,42.75,0,0,0,5.8-6.23,6.62,6.62,0,0,1-1-.4,7.07,7.07,0,1,1,6.64-12.49,6.53,6.53,0,0,1,.86.59,42.72,42.72,0,0,0,1.89-8.24,6,6,0,0,1-.95.13,7.07,7.07,0,1,1-.5-14.13,7.14,7.14,0,0,1,.93.06,42.24,42.24,0,0,0-2.45-8,5.89,5.89,0,0,1-.68.53,7.07,7.07,0,0,1-7.5-12,7.6,7.6,0,0,1,.76-.37,43.51,43.51,0,0,0-6.08-5.67c-.1.24-.17.48-.29.72a7.07,7.07,0,0,1-12.49-6.64c.13-.23.29-.43.44-.65A43.34,43.34,0,0,0,368.53,46c0,.24.09.47.1.72a7.07,7.07,0,0,1-14.14.5A6.64,6.64,0,0,1,354.54,46.44Zm7.31,13.24a28.81,28.81,0,1,1-27.78,29.81A28.8,28.8,0,0,1,361.85,59.68Z" transform="translate(-42.62 -5.49)" style="fill:#bfd2ff"/><path d="M313,82.84c-.87-.64-1.95-1.17-2.28-2.2-.55-1.64,1.22-3.36.78-5-.36-1.41-2-2-3.48-2.19S305,73,304.14,71.79c-.69-1-.53-2.32-.69-3.53A6.44,6.44,0,0,0,298.92,63c-2.5-.71-4.68,1.56-6.77,2.47A7.19,7.19,0,0,0,288,70.9a17.25,17.25,0,0,0,.38,7.14,51.9,51.9,0,0,1,1.37,7.07,20.83,20.83,0,0,1-1.13,7.55,7.89,7.89,0,0,0,.31,5.68c.91,1.56,2.74,2.28,4.47,2.78a24.52,24.52,0,0,0,10.34,1,14,14,0,0,0,8.57-4.53,11.2,11.2,0,0,0,3.41-4.7C317,89.38,316,85,313,82.84Z" transform="translate(-42.62 -5.49)" style="fill:#485070"/><path d="M295.67,70.73a5.68,5.68,0,0,1-.53,4.38c-.25.43-.64.87-1.14.84s-.88-.67-1.06-1.21a19.25,19.25,0,0,1-.94-4.62c-.08-1,.1-2.7,1.47-2.37C294.53,68,295.39,69.8,295.67,70.73Z" transform="translate(-42.62 -5.49)" style="fill:#ff6ea1"/><path d="M295.66,94.28c-1,3.51-6.72,5.21-10,1.16-.41-.5-.78-1-1.14-1.55-3.55.7-8.82,2.24-11.19,5.11a9.16,9.16,0,0,0-1.48,3.27c-1.23,4.2-2.26,8.47-3.07,12.78a2.86,2.86,0,0,0,0,1.48,3.23,3.23,0,0,0,1.22,1.35c4.9,3.86,6.19,10.1,7.8,15.73,2.45,8.56,3.57,20.39,6,28.95,8,.61,41.4-7,45.42-10.48C323.47,141.71,318.8,123,317,110c-.78-5.52-2.94-10.77-5.05-15.94-.5-1.21-.94-4-1.86-4.78-1.22-1-12.85.72-14.08.76,0,.69.07,1.38.09,2.06A7.1,7.1,0,0,1,295.66,94.28Z" transform="translate(-42.62 -5.49)" style="fill:#ff6ea1"/><path d="M283.76,88.62a15.44,15.44,0,0,0-1.57-3.46,9.86,9.86,0,0,0,5.48-1.86,16.25,16.25,0,0,0,2.2-1.94c.25-.25.62-.88,1-1.34-.53.62.77,4.08,1,4.79a12.55,12.55,0,0,0,2.37,4.12c1.05,1.17,1.74,1.37,1.93,3a12.11,12.11,0,0,1-.77,5.29,5.08,5.08,0,0,1-1.82,2.63,4.69,4.69,0,0,1-3.68.32c-2.07-.54-4.91-2.27-5.65-4.43-.39-1.13,0-1.72.15-2.88A11.07,11.07,0,0,0,283.76,88.62Z" transform="translate(-42.62 -5.49)" style="fill:#ffc1a6"/><path d="M284.46,92.32c0-.12,0-.24,0-.36a15.26,15.26,0,0,0-.69-3.34,15.44,15.44,0,0,0-1.57-3.46,9.86,9.86,0,0,0,5.48-1.86,16.25,16.25,0,0,0,2.2-1.94c.25-.25.62-.88,1-1.34.06.64.15,1.28.26,1.91A13.43,13.43,0,0,1,284.46,92.32Z" transform="translate(-42.62 -5.49)" style="fill:#e3856d"/><path d="M271.27,77.5a15.34,15.34,0,0,0,5.26,8.25,6.59,6.59,0,0,0,2.36,1.3,3,3,0,0,0,2.58-.44c1-.8,1.18-2.24,1.25-3.53a29.48,29.48,0,0,0-.23-7.21,11.42,11.42,0,0,0-3.23-6.33c-1.45-1.34-5.42-3.28-7.17-1.43C270.19,70.11,270.68,75.11,271.27,77.5Z" transform="translate(-42.62 -5.49)" style="fill:#485070"/><path d="M273.34,71.84c.34-2.27,2.9-.59,5-1.55,1.81-.83,3.18-1.56,5.22-1.41a7.5,7.5,0,0,1,4.89,2.17c.34.36.65.72.94,1.09a25.2,25.2,0,0,1,2.11,4.18l0,.1a14,14,0,0,1-1.87,8,7.36,7.36,0,0,1-6.38,3.86,6.29,6.29,0,0,1-4.06-1.58,13.9,13.9,0,0,1-3-3.94C275,80.56,273,74.33,273.34,71.84Z" transform="translate(-42.62 -5.49)" style="fill:#ffc1a6"/><path d="M283.24,76.09c-2.47-.58-5-.94-7.29-2.06A8.16,8.16,0,0,1,272,70.14c-.76-1.75-.24-3,.77-4.5A10.9,10.9,0,0,1,279,61.23c2.51-.66,5.65.31,8.06,1.15a9.86,9.86,0,0,1,4.4,2.86c2,2.37,2.63,6.45,2.47,9.45a16.13,16.13,0,0,1-.75,3.64c-.29,1-.8,2.13-2,2.27-.79.1-2.39-2.17-3.2-2.67a14.72,14.72,0,0,0-4.18-1.68Z" transform="translate(-42.62 -5.49)" style="fill:#485070"/><path d="M279.44,78.81a.73.73,0,1,0,.65-.79A.72.72,0,0,0,279.44,78.81Z" transform="translate(-42.62 -5.49)" style="fill:#485070"/><path d="M280.52,76.73a2.28,2.28,0,0,0-1.45.19" transform="translate(-42.62 -5.49)" style="fill:none;stroke:#485070;stroke-linecap:round;stroke-miterlimit:10;stroke-width:0.75px"/><path d="M275,80a.73.73,0,1,0,.65-.8A.74.74,0,0,0,275,80Z" transform="translate(-42.62 -5.49)" style="fill:#485070"/><path d="M276,77.94a2.24,2.24,0,0,0-1.44.19" transform="translate(-42.62 -5.49)" style="fill:none;stroke:#485070;stroke-linecap:round;stroke-miterlimit:10;stroke-width:0.75px"/><path d="M277.58,80.1a2.52,2.52,0,0,1-.29,1.86.75.75,0,0,0-.17.46.45.45,0,0,0,.39.33,1.4,1.4,0,0,0,.53-.08" transform="translate(-42.62 -5.49)" style="fill:none;stroke:#485070;stroke-linecap:round;stroke-miterlimit:10;stroke-width:0.75px"/><path d="M281.24,83.73a2.88,2.88,0,0,1-2.43.89" transform="translate(-42.62 -5.49)" style="fill:none;stroke:#485070;stroke-linecap:round;stroke-miterlimit:10;stroke-width:0.75px"/><path d="M291.67,76.24a2.66,2.66,0,1,1-2.92-2.38A2.66,2.66,0,0,1,291.67,76.24Z" transform="translate(-42.62 -5.49)" style="fill:#ffc1a6"/><path d="M289.42,75.33A1.13,1.13,0,0,0,288.36,77a.78.78,0,0,1,.85-.22.8.8,0,0,1,.51.72" transform="translate(-42.62 -5.49)" style="fill:none;stroke:#485070;stroke-linecap:round;stroke-linejoin:round;stroke-width:0.75px"/><rect x="91.09" y="243.78" width="228.43" height="135.84" rx="8.74" style="fill:#dce4ff;stroke:#485070;stroke-miterlimit:10;stroke-width:0.75px"/><path d="M379.05,385.28H116.8a10.9,10.9,0,0,0,10.9,10.9H368.15A10.9,10.9,0,0,0,379.05,385.28Z" transform="translate(-42.62 -5.49)" style="fill:#bac5ef;stroke:#485070;stroke-miterlimit:10;stroke-width:0.75px"/><rect x="96.57" y="249.12" width="217.47" height="126.24" rx="6.83" style="fill:#545d78"/><path d="M251,251.82a1.69,1.69,0,1,1-1.69-1.69A1.68,1.68,0,0,1,251,251.82Z" transform="translate(-42.62 -5.49)" style="fill:#333"/><rect x="121.11" y="166.98" width="253.64" height="172.62" transform="translate(-47.99 495.73) rotate(-90)" style="fill:#fefeff"/><polygon points="221.16 354.5 198.19 325.88 178.21 351.48 160.89 332.76 163.16 330.67 178.01 346.72 198.15 320.91 220.52 348.78 233.51 322.27 260.92 317.42 261.45 320.46 235.59 325.03 221.16 354.5" style="fill:#e6edff"/><path d="M307.76,324.43a4,4,0,1,0-3.95,4A4,4,0,0,0,307.76,324.43Z" transform="translate(-42.62 -5.49)" style="fill:#ff6ea1"/><path d="M267.58,357.13a4,4,0,1,0-4,4A4,4,0,0,0,267.58,357.13Z" transform="translate(-42.62 -5.49)" style="fill:#628aec"/><path d="M280.66,329.14a4,4,0,1,0-4,4A4,4,0,0,0,280.66,329.14Z" transform="translate(-42.62 -5.49)" style="fill:#ffb861"/><circle cx="198.02" cy="323.65" r="3.96" style="fill:#ffb861"/><circle cx="178.58" cy="348.63" r="3.96" style="fill:#ff6ea1"/><path d="M209.46,338a4,4,0,1,0-4,4A4,4,0,0,0,209.46,338Z" transform="translate(-42.62 -5.49)" style="fill:#3fd4c7"/><polyline points="145.46 307.46 145.46 361.45 265.94 361.45" style="fill:none;stroke:#485070;stroke-miterlimit:10;stroke-width:0.75px"/><rect x="155.05" y="221.27" width="18.39" height="42.71" style="fill:#ffb861"/><rect x="183.47" y="200.37" width="18.39" height="63.61" style="fill:#ff6ea1"/><path d="M194.24,214.52A169.51,169.51,0,0,0,252,171.24" transform="translate(-42.62 -5.49)" style="fill:none;stroke:#485070;stroke-linecap:round;stroke-miterlimit:10;stroke-width:0.75px"/><polygon points="211.1 163.78 209.79 167.51 209.25 165.87 207.56 165.53 211.1 163.78" style="fill:#485070"/><rect x="211.9" y="171.52" width="18.39" height="92.46" style="fill:#3fd4c7"/><rect x="240.33" y="211.96" width="18.39" height="52.02" style="fill:#628aec"/><polyline points="144.23 173.25 144.23 264.12 267.08 264.12" style="fill:none;stroke:#485070;stroke-miterlimit:10;stroke-width:0.75px"/><rect x="143.53" y="272.89" width="123.37" height="6.21" style="fill:#e6edff"/><rect x="167.99" y="149.91" width="74.14" height="6.21" style="fill:#e6edff"/><rect x="143.38" y="139.06" width="123.37" height="6.21" style="fill:#e6edff"/><rect x="143.53" y="284.28" width="123.37" height="6.21" style="fill:#e6edff"/><rect x="143.53" y="295.67" width="123.37" height="6.21" style="fill:#e6edff"/><path d="M304.84,89.53c-1.44.34-2.86.74-4.28,1.14a1.82,1.82,0,0,0-.68.3,1.7,1.7,0,0,0-.42.92A18.52,18.52,0,0,0,302.71,106c.88,1.1,1.92,2.06,2.87,3.09s2.2,2,3,3c1,1.25,1.39,3.27,1.84,4.76a46.22,46.22,0,0,1,1.92,10.56c.16,2.37.27,5.07,2.09,6.6s4.67,1.13,6.53-.31a12.55,12.55,0,0,0,3.72-5.91,47.33,47.33,0,0,0,2.89-18.1c-.27-5.59-2-12.33-5.59-16.75-2.42-3-6.4-4.28-10.22-4.34A28.75,28.75,0,0,0,304.84,89.53Z" transform="translate(-42.62 -5.49)" style="fill:#ff6ea1"/><path d="M308.26,123q2-10.77,4-21.54" transform="translate(-42.62 -5.49)" style="fill:none;stroke:#485070;stroke-miterlimit:10;stroke-width:0.75px"/><path d="M309.65,102.83c.46,1.17.92,2.34,1.37,3.52" transform="translate(-42.62 -5.49)" style="fill:none;stroke:#485070;stroke-miterlimit:10;stroke-width:0.75px"/><path d="M282.59,138.49a5.21,5.21,0,0,1,1.59-.3c4.86-.1,9.59-.6,14.49-1.1,3.28-.33,6.55-.51,9.82-.56,2.63,0,5.68.53,8.25-.19s4.56-1.53,5.92-3.77a35.52,35.52,0,0,0,1.77-3.33,3.37,3.37,0,0,0,.46-2c-.21-1-1.3-1.59-2.37-2-2.27-.84-3.68-2.14-6.29-2.41a26.93,26.93,0,0,0-8.12.64c-5.2,1.09-10.4,1.54-15.51,3.06a139.28,139.28,0,0,0-16.74,6.55,17.59,17.59,0,0,0-5.5,3.33,5.76,5.76,0,0,0-.57,7.81,2.63,2.63,0,0,0,2.35,1c1-.17,1.6-1.43.8-1.8C278.19,145.42,278.33,140,282.59,138.49Z" transform="translate(-42.62 -5.49)" style="fill:#ffc1a6"/><path d="M266.17,139.32l0-.32-.24.59Z" transform="translate(-42.62 -5.49)" style="fill:#ff6ea1"/><path d="M279.79,98.71a3.47,3.47,0,0,0-1.33-1.39c-1.7-1-5.26.53-6.79,1.37a8.85,8.85,0,0,0-.95.6,24.7,24.7,0,0,0-4.86,4.29c-.49.54-1,1.08-1.44,1.63-7.05,8.15-11.61,17.12-10.47,28,.25,2.33.71,4.85,2.45,6.43a6.19,6.19,0,0,0,5.23,1.34,9.3,9.3,0,0,0,4.63-2.46l-.05.45.26-.64c2.78-2.7,3.43-6.43,4.11-10.07v0L277.21,112C278.27,109.39,281.68,102.26,279.79,98.71Z" transform="translate(-42.62 -5.49)" style="fill:#ff6ea1"/><path d="M268.52,179.23c3.05-5-2.5-5.79-3.31-10.23a4.89,4.89,0,0,1,0-1.62c.77-4.85,1.11-9.63,1.49-14.56.26-3.3.66-6.59,1.21-9.85.36-2.2,1.22-4.63,1.32-6.92-.05-.73-.13-1.46-.25-2.17a7.62,7.62,0,0,0-4.57-3.74,8.74,8.74,0,0,0-8,1.6,22.26,22.26,0,0,0-1.48,2.66,27.79,27.79,0,0,0-.59,7.29c.18,5.32-.3,10.55.34,15.83A128.86,128.86,0,0,0,258.4,175a16.39,16.39,0,0,0,2.43,5.9,6.06,6.06,0,0,0,8,1.55,2.75,2.75,0,0,0,1.45-2.21C270.24,179.28,269.06,178.48,268.52,179.23Z" transform="translate(-42.62 -5.49)" style="fill:#ffc1a6"/><path d="M269,134a56.71,56.71,0,0,1,7.6-18.39" transform="translate(-42.62 -5.49)" style="fill:none;stroke:#485070;stroke-miterlimit:10;stroke-width:0.75px"/><path d="M274,119.63l2.6-1.68" transform="translate(-42.62 -5.49)" style="fill:none;stroke:#485070;stroke-miterlimit:10;stroke-width:0.75px"/><path d="M119.68,245.08c3.72,4.25,5.24,10,6.51,15.36q2.44,10.43,4.9,20.83a24.6,24.6,0,0,1,.82,5,36,36,0,0,1-1.32,8.69c-.81,3.32-2.8,3.12-5.76,2.82-4.68-.46-11-1.88-14.2-5.69-1.5-1.81-2-4.24-2.41-6.55-.6-3.18-1.19-6.36-1.79-9.55-2.43-13-4.86-26.41-2.11-39.34A24.7,24.7,0,0,1,119.68,245.08Z" transform="translate(-42.62 -5.49)" style="fill:#fff"/><path d="M126.55,286.2c2.07,1,4,2.24,6,3.44,3.16,1.9,6.46,3.24,9.7,5a9.49,9.49,0,0,0,2.87,1.17c1.73.31,3.56-.34,5.3-.11,2.34.32,4.33,2.4,5.17,5.15,1.43,4.63-1.91,2.9-4.12,2.5l-5.17-.95a154.55,154.55,0,0,0-20.22-2.2c-3.77-.2-10.41-.11-13.23-3.55-1.37-1.67-2.89-9-1.09-10.76a2.88,2.88,0,0,1,1.16-.63,17.62,17.62,0,0,1,10.84-.17A21.6,21.6,0,0,1,126.55,286.2Z" transform="translate(-42.62 -5.49)" style="fill:#9c5240"/><path d="M124.1,339.76H58A3.93,3.93,0,0,1,54,335.83h0A3.93,3.93,0,0,1,58,331.9H124.1a3.93,3.93,0,0,1,3.93,3.93h0A3.93,3.93,0,0,1,124.1,339.76Z" transform="translate(-42.62 -5.49)" style="fill:#485070"/><rect x="65.23" y="244.08" width="35.88" height="64.4" rx="6.33" transform="translate(316.84 187.62) rotate(90)" style="fill:#485070"/><rect x="16.6" y="282.9" width="4" height="47.74" style="fill:#485070"/><rect x="59.75" y="282.9" width="4" height="47.74" style="fill:#485070"/><rect x="44.33" y="332.3" width="4" height="57.99" style="fill:#485070"/><rect x="14.27" y="332.3" width="4" height="57.99" style="fill:#485070"/><rect x="78.39" y="332.3" width="4" height="57.99" style="fill:#485070"/><rect x="57.86" y="332.3" width="4" height="57.99" style="fill:#485070"/><path d="M165,358.14c-2.26.48-3.82.59-6.5,1q-5.85.83-11.73,1.34c1,7.05,2,13.25,2.19,14.49,1,5.4.46,18.93,2.87,24.07,2.93.36,5.47-.12,8.22-.35C161.52,385.13,162.72,371.55,165,358.14Z" transform="translate(-42.62 -5.49)" style="fill:#cf9378"/><path d="M144.59,370a17.39,17.39,0,0,0,.25,3.31,18.16,18.16,0,0,0,12.22,5.19,21.07,21.07,0,0,0,7.53-1.05q.42-7.92.94-15.84c.44-6.87.79-13.74,1.65-20.57a99,99,0,0,0,.1-18.46c-1.75-6.71-6.21-8.55-6.21-8.55s-12.46-4.93-22-7c-11.72-2.57-23.63-4.48-35.41-7-5.66-1.23-15.13-1-18,5.19C82.22,312.32,89,321.84,94.4,326c5.62,4.28,12.55,6.44,19.45,7.94a126.19,126.19,0,0,0,29.77,2.87C143.3,336.79,144.58,367.54,144.59,370Z" transform="translate(-42.62 -5.49)" style="fill:#66a3f2"/><path d="M143.61,336.84l0,0c-2.17-2.16-4.23-4.45-6.4-6.61-3.24-3.22-6.39-6.53-9.61-9.77-6.39-6.43-12.82-12.83-19.07-19.4-1.64-.34-3.28-.68-4.92-1-5.66-1.23-15.13-1-18,5.19C82.22,312.32,89,321.84,94.4,326c5.62,4.28,12.55,6.44,19.45,7.94a126.19,126.19,0,0,0,29.77,2.87A.2.2,0,0,0,143.61,336.84Z" transform="translate(-42.62 -5.49)" style="fill:#485070"/><path d="M143.7,338.75c0-3.13.43-6.95.44-10.08" transform="translate(-42.62 -5.49)" style="fill:none;stroke:#485070;stroke-miterlimit:10;stroke-width:0.397545px"/><path d="M151.74,311c-8.38-2.69-16-5.18-28.33-6.85" transform="translate(-42.62 -5.49)" style="fill:none;stroke:#485070;stroke-miterlimit:10;stroke-width:0.75px"/><path d="M107.79,397.36h26.82a0,0,0,0,1,0,0v2.9a0,0,0,0,1,0,0H108.75a1,1,0,0,1-1-1v-1.94A0,0,0,0,1,107.79,397.36Z" style="fill:#b3b3b3"/><path d="M176.86,403.63a2.91,2.91,0,0,0,.25-.42,3.68,3.68,0,0,0-1.36-4.17,12.09,12.09,0,0,0-4.45-1.92,74.35,74.35,0,0,0-10.08-2.33c-.91-.12-10.68-1-10.63-1.46-.15,2.47-.31,4.93-.46,7.39a7.91,7.91,0,0,0,0,2.91Z" transform="translate(-42.62 -5.49)" style="fill:#485070"/><path d="M155,391.3a4.66,4.66,0,0,1,5.4-.15,5.78,5.78,0,0,1,2.38,5,1.38,1.38,0,0,1-.35,1,1.5,1.5,0,0,1-1,.26l-4.62.05c-1,0-2.18.24-2.85-.62C152.79,395.3,153.88,392.45,155,391.3Z" transform="translate(-42.62 -5.49)" style="fill:#485070"/><path d="M165.19,395.5a2.13,2.13,0,0,0-2.15,1.34" transform="translate(-42.62 -5.49)" style="fill:none;stroke:#b3b3b3;stroke-linecap:round;stroke-miterlimit:10;stroke-width:0.75px"/><path d="M165.74,397.85a2.77,2.77,0,0,1,2.28-1.3" transform="translate(-42.62 -5.49)" style="fill:none;stroke:#b3b3b3;stroke-linecap:round;stroke-miterlimit:10;stroke-width:0.75px"/><path d="M169.14,398.21a1.55,1.55,0,0,1,1.41-1" transform="translate(-42.62 -5.49)" style="fill:none;stroke:#b3b3b3;stroke-linecap:round;stroke-miterlimit:10;stroke-width:0.75px"/><path d="M120.58,354.5q-5.16.72-10.33,1.2c2.61,12.83,3.81,25.9,5.94,38.82,2.93,0,5.6-.64,8.71-.57.6-3.91,1.79-27.13,3.63-40.75A66.52,66.52,0,0,1,120.58,354.5Z" transform="translate(-42.62 -5.49)" style="fill:#cf9378"/><path d="M110.76,372.76c.71,2.89,1.54,4.67,4.39,5.8a16.4,16.4,0,0,0,7.81,1.09,13.05,13.05,0,0,0,6.44-3s3.68-54.79-.89-61.81c-5.6-8.59-17.84-10.36-27.39-12.45-8.35-1.84-16.81-3.34-25.25-5-2.06,7.82-.57,17,2.41,24.21l0,.11a16.59,16.59,0,0,0,13.91,10,125.63,125.63,0,0,0,13.44.42C105.62,332.18,108.22,362.41,110.76,372.76Z" transform="translate(-42.62 -5.49)" style="fill:#66a3f2"/><path d="M105.76,334.14c0-3.13.43-6.95.44-10.08" transform="translate(-42.62 -5.49)" style="fill:none;stroke:#485070;stroke-miterlimit:10;stroke-width:0.397545px"/><path d="M72.87,396.94H99.69a0,0,0,0,1,0,0v2.9a0,0,0,0,1,0,0H73.83a1,1,0,0,1-1-1v-1.94A0,0,0,0,1,72.87,396.94Z" style="fill:#b3b3b3"/><path d="M141.93,403.21a2.26,2.26,0,0,0,.26-.42,3.68,3.68,0,0,0-1.36-4.17,12.09,12.09,0,0,0-4.45-1.92,74.35,74.35,0,0,0-10.08-2.33c-.91-.12-10.68-1-10.64-1.46l-.45,7.39a7.7,7.7,0,0,0,0,2.91Z" transform="translate(-42.62 -5.49)" style="fill:#485070"/><path d="M120.11,390.88a4.64,4.64,0,0,1,5.39-.15,5.78,5.78,0,0,1,2.39,5,1.38,1.38,0,0,1-.35,1,1.5,1.5,0,0,1-1,.26l-4.62.06c-1,0-2.18.23-2.85-.63C117.87,394.88,119,392,120.11,390.88Z" transform="translate(-42.62 -5.49)" style="fill:#485070"/><path d="M130.26,395.08a2.14,2.14,0,0,0-2.15,1.34" transform="translate(-42.62 -5.49)" style="fill:none;stroke:#b3b3b3;stroke-linecap:round;stroke-miterlimit:10;stroke-width:0.75px"/><path d="M130.82,397.43a2.77,2.77,0,0,1,2.28-1.3" transform="translate(-42.62 -5.49)" style="fill:none;stroke:#b3b3b3;stroke-linecap:round;stroke-miterlimit:10;stroke-width:0.75px"/><path d="M134.21,397.79a1.57,1.57,0,0,1,1.42-1" transform="translate(-42.62 -5.49)" style="fill:none;stroke:#b3b3b3;stroke-linecap:round;stroke-miterlimit:10;stroke-width:0.75px"/><path d="M74.74,308c.24,1.26.48,2.52.71,3.78C79.8,309.51,85,310,89.93,310a66.63,66.63,0,0,0,31-7.74,42.5,42.5,0,0,1-1.16-7.94c0-2.74-1.15-5.4-1.15-8.14-.18-3.71,0-7.43.15-11.14.35-7,.82-14.12-.49-21A30.89,30.89,0,0,0,113,241.41c-1.25-1.69-3-3.89-4.9-4.86s-5.09-.69-7.37-.89a19.25,19.25,0,0,0-5,0,16.77,16.77,0,0,0-5.69,2.4c-9.47,5.68-10.62,14.84-13.47,24.7-1.42,4.93-3.66,9.59-5.08,14.51a27.93,27.93,0,0,0-1.06,8.48c.06,2.59,1,4.89,1.53,7.44Q73.36,300.59,74.74,308Z" transform="translate(-42.62 -5.49)" style="fill:#fff"/><path d="M101.53,244.67a9.15,9.15,0,0,0,6.38,2.13,4.1,4.1,0,0,0,2.25-.7,1.94,1.94,0,0,0,.72-2.12" transform="translate(-42.62 -5.49)" style="fill:none;stroke:#485070;stroke-linecap:round;stroke-miterlimit:10;stroke-width:0.397545px"/><path d="M99.35,265.32a23,23,0,0,0,14,14.75" transform="translate(-42.62 -5.49)" style="fill:none;stroke:#485070;stroke-linecap:round;stroke-miterlimit:10;stroke-width:0.397545px"/><path d="M105.49,270.55a10.65,10.65,0,0,0,6.91,3.71" transform="translate(-42.62 -5.49)" style="fill:none;stroke:#485070;stroke-linecap:round;stroke-miterlimit:10;stroke-width:0.397545px"/><path d="M93.4,270.14A49.12,49.12,0,0,0,106,290.5" transform="translate(-42.62 -5.49)" style="fill:none;stroke:#485070;stroke-linecap:round;stroke-miterlimit:10;stroke-width:0.397545px"/><path d="M115.19,244.29c2.72,4.68,2.76,7.34,3.37,11.47a88.2,88.2,0,0,1,.94,14c-.11,7.84-1.84,15-.09,22.78" transform="translate(-42.62 -5.49)" style="fill:none;stroke:#485070;stroke-miterlimit:10;stroke-width:0.397545px"/><path d="M109.5,234.2a16.39,16.39,0,0,1,1.69-3.71,10.63,10.63,0,0,1-5.88-2,17.31,17.31,0,0,1-2.36-2.08c-.27-.27-.67-.95-1.08-1.44-.44,4.71-2.19,9.14-6.21,11.83a15.69,15.69,0,0,0,6.07,5.75c2.09,1.21,7.31,3.56,7.43-.68,0-1.39-.52-2.67-.4-4.08A16.25,16.25,0,0,1,109.5,234.2Z" transform="translate(-42.62 -5.49)" style="fill:#cf9378"/><path d="M108.75,238.16c0-.12,0-.25,0-.37a17.31,17.31,0,0,1,2.43-7.3,10.63,10.63,0,0,1-5.88-2,17.31,17.31,0,0,1-2.36-2.08c-.27-.27-.67-.95-1.08-1.44-.07.69-.16,1.37-.29,2.05A14.42,14.42,0,0,0,108.75,238.16Z" transform="translate(-42.62 -5.49)" style="fill:#9c5240"/><path d="M78,245.08c-3.72,4.25-5.25,10-6.51,15.36Q69,270.87,66.53,281.27c-.56,2.41-1.47,5.7-.94,8.16A10.59,10.59,0,0,0,70.42,296c2.47,1.49,6.23,2.16,9,.9s5.7-2.49,7.63-4.82c1.5-1.81,2-4.24,2.41-6.55.6-3.18,1.19-6.36,1.79-9.55,2.43-13,4.86-26.41,2.11-39.34A24.7,24.7,0,0,0,78,245.08Z" transform="translate(-42.62 -5.49)" style="fill:#fff"/><path d="M93.44,258c-5.41,1.4-4.93,8.32-5.42,12.59a124.68,124.68,0,0,1-3.59,18.68" transform="translate(-42.62 -5.49)" style="fill:none;stroke:#485070;stroke-miterlimit:10;stroke-width:0.397545px"/><path d="M89.38,261.54a10.25,10.25,0,0,1,3.28-4.82" transform="translate(-42.62 -5.49)" style="fill:none;stroke:#485070;stroke-miterlimit:10;stroke-width:0.397545px"/><path d="M86.18,287.45c2.9.64,5.75,1.56,8.59,2.43,4.52,1.36,9.1,2.15,13.69,3.37a16,16,0,0,0,4,.7c2.32,0,4.57-.91,6.89-1a9.38,9.38,0,0,1,7.82,4.25c2.84,4.34-1.87,3.17-4.83,3.13l-6.93-.1c-9.08-.13-17.67.33-26.78,1.09-5,.42-13.58,1.58-18-1.36-2.14-1.42-5.67-8.37-3.7-10.45a3.84,3.84,0,0,1,1.37-.8,29.71,29.71,0,0,1,14.06-1.92A37.55,37.55,0,0,1,86.18,287.45Z" transform="translate(-42.62 -5.49)" style="fill:#cf9378"/><path d="M152.47,290.87h-.17" transform="translate(-42.62 -5.49)" style="fill:#dc8b77"/><rect x="58.46" y="304.62" width="62.43" height="2.84" rx="1.21" style="fill:#485070"/><path d="M169.82,312.94H116.47l4.64-30.65a2.16,2.16,0,0,1,2.11-1.86h49.12a2.08,2.08,0,0,1,2,2.43Z" transform="translate(-42.62 -5.49)" style="fill:#757e96"/><circle cx="104.93" cy="290.57" r="3.54" style="fill:#fff"/><path d="M120.07,214.68c-.61-2.38-3.16-.3-5.49-1.1-2-.7-3.56-1.32-5.72-.94a8,8,0,0,0-5,2.85,14.76,14.76,0,0,0-.9,1.27,27.88,27.88,0,0,0-1.79,4.68v.11a15.11,15.11,0,0,0,2.88,8.36,7.87,7.87,0,0,0,7.22,3.41,6.74,6.74,0,0,0,4.16-2.12,14.94,14.94,0,0,0,2.76-4.54C119.26,224.17,120.74,217.31,120.07,214.68Z" transform="translate(-42.62 -5.49)" style="fill:#cf9378"/><path d="M108.82,217q0-.17.06-.36l.63-3c2.51,1.88,5.23,4.55,8.48,5.63a6.2,6.2,0,0,0,6.79-2.14,7.8,7.8,0,0,0,.7-1.18,9.27,9.27,0,0,1,.44-1.05,2.27,2.27,0,0,1-2.83-.62,9.27,9.27,0,0,1-1.41-2.81,13.06,13.06,0,0,0-4.54-5.76,10.33,10.33,0,0,0-7-1.83,8.91,8.91,0,0,0-4.29,1.72,7.46,7.46,0,0,0-1.63,1.64c-.21.29-1.1,1.88-.74,2.19a1.82,1.82,0,0,0-2-.06A4.29,4.29,0,0,0,100,211,13.82,13.82,0,0,0,98.38,220a17.4,17.4,0,0,0,1.2,3.81c.41,1,1.08,2.18,2.33,2.21,1.74,0,1.54-2.87,2-4.37.19-.59.15-1.32.85-1.5s1.86,1.17,2.41.07a2.09,2.09,0,0,0,0-1.31,1.76,1.76,0,0,1,.08-1.3s.92,0,1.06,0A.62.62,0,0,0,108.82,217Z" transform="translate(-42.62 -5.49)" style="fill:#485070"/><path d="M104.54,205a6.45,6.45,0,0,0-.71,6.41" transform="translate(-42.62 -5.49)" style="fill:none;stroke:#485070;stroke-linecap:round;stroke-miterlimit:10;stroke-width:0.75px"/><path d="M99.76,208.86a2.82,2.82,0,0,1,3.53.55" transform="translate(-42.62 -5.49)" style="fill:none;stroke:#485070;stroke-linecap:round;stroke-miterlimit:10;stroke-width:0.75px"/><circle cx="70.92" cy="217.31" r="0.78" style="fill:#485070"/><path d="M112.93,220.69a2.41,2.41,0,0,1,1.57.05" transform="translate(-42.62 -5.49)" style="fill:none;stroke:#485070;stroke-linecap:round;stroke-miterlimit:10;stroke-width:0.75px"/><path d="M119.24,223.59a.78.78,0,1,1-.78-.78A.78.78,0,0,1,119.24,223.59Z" transform="translate(-42.62 -5.49)" style="fill:#485070"/><path d="M117.86,221.49a2.39,2.39,0,0,1,1.56,0" transform="translate(-42.62 -5.49)" style="fill:none;stroke:#485070;stroke-linecap:round;stroke-miterlimit:10;stroke-width:0.75px"/><path d="M116.44,224a2.73,2.73,0,0,0,.51,1.95.75.75,0,0,1,.23.47.48.48,0,0,1-.37.39,1.27,1.27,0,0,1-.58,0" transform="translate(-42.62 -5.49)" style="fill:none;stroke:#485070;stroke-linecap:round;stroke-miterlimit:10;stroke-width:0.75px"/><path d="M112.93,228.24a3.15,3.15,0,0,0,2.7.69" transform="translate(-42.62 -5.49)" style="fill:none;stroke:#485070;stroke-linecap:round;stroke-miterlimit:10;stroke-width:0.75px"/><path d="M101,221.38a2.86,2.86,0,1,0,2.86-2.85A2.86,2.86,0,0,0,101,221.38Z" transform="translate(-42.62 -5.49)" style="fill:#cf9378"/><path d="M103.28,220.16a1.27,1.27,0,0,1,1.11.44,1.29,1.29,0,0,1,.21,1.18.85.85,0,0,0-1.41.69" transform="translate(-42.62 -5.49)" style="fill:none;stroke:#485070;stroke-linecap:round;stroke-linejoin:round;stroke-width:0.75px"/><path d="M421.09,384.87c-.08-.36-10.29,1.43-11.42,1.6l-.13.11c-3.53,3-8,4.63-12.39,6.22a4.22,4.22,0,0,0-1.85,1.06c-2,2.33,2.23,3.34,3.73,3.46a28.06,28.06,0,0,0,7.26-.71c4.92-.86,9.93-.58,14.8-1.78a.88.88,0,0,0,.52-.27.84.84,0,0,0,.12-.45A30,30,0,0,0,421.09,384.87Z" transform="translate(-42.62 -5.49)" style="fill:#485070"/><path d="M398.73,313.06c2.47,24.58,7,49.81,9.78,74.36,5.76.5,7.85.12,13.44-.83,3.67-26.71,5.22-39.6,1.91-66.7-.34-2.78,0-25.81-.14-28.77-.59-17.61,1.76-37.72-8.81-52.59-2.68-3.76-7.05-6.64-11.5-6.29a10.41,10.41,0,0,0-7.64,4.57c-5.46,7.41-2.41,27.56-1.44,36.36C395.62,284.84,397.56,301.35,398.73,313.06Z" transform="translate(-42.62 -5.49)" style="fill:#757e96"/><path d="M400.47,328.36c1-4.27,2.22-8.48,3.42-12.69,4.2-14.73,5.94-29.86,8.05-45a69.9,69.9,0,0,0,.93-10.81c-.06-3.68-.55-7.37-.84-11A95.28,95.28,0,0,0,410,233.93a11.17,11.17,0,0,0-6.55-1.69,10.41,10.41,0,0,0-7.64,4.57c-5.46,7.41-2.41,27.56-1.44,36.36,1.29,11.67,3.23,28.18,4.4,39.89C399.24,318.08,399.83,323.19,400.47,328.36Z" transform="translate(-42.62 -5.49)" style="fill:#545d78"/><path d="M381.71,388.28l-.3,0a39.2,39.2,0,0,1-9.86-.05,3.81,3.81,0,0,0-1.26,0,3.56,3.56,0,0,0-1,.49,29.63,29.63,0,0,1-10,3.81c-2,.38-4.2.59-5.81,1.87-.75.61-1.34,1.72-.77,2.5a2.14,2.14,0,0,0,.79.57c3.07,1.44,7.71.88,11,.69,5.33-.29,10.61,0,15.87-1a1.3,1.3,0,0,0,.6-.23,1.45,1.45,0,0,0,.4-.82,40.87,40.87,0,0,0,.79-4.42c.07-.58.4-2.69,0-3.19A.58.58,0,0,0,381.71,388.28Z" transform="translate(-42.62 -5.49)" style="fill:#485070"/><path d="M394.75,235.61c-12.12-.19-15.83,12.46-17.27,22.19q-4.58,30.82-6.41,62c-.61,10.32-1.42,19-1.76,29.36-.36,10.61-.94,29-.48,39.51a1,1,0,0,0,.17.6,1,1,0,0,0,.66.25,73.83,73.83,0,0,0,13.38.19,1.22,1.22,0,0,0,.6-.16c.19-.14-1.52-.82-1.45-1,3.41-10.53,5.75-29.36,6.82-40.36,2.23-23,7-45.4,15.59-66.65C413.18,261.4,418,236,394.75,235.61Z" transform="translate(-42.62 -5.49)" style="fill:#757e96"/><path d="M399.72,294a321.3,321.3,0,0,0,12.51-35.62" transform="translate(-42.62 -5.49)" style="fill:none;stroke:#485070;stroke-miterlimit:10;stroke-width:0.75px"/><path d="M397.13,262.87l.12,0q1.67.27,3.33.48c.82.1,1.64.19,2.46.26l.81.08,2,.14,1.17,0,.91,0h0a76.47,76.47,0,0,0,15.63-1.1c-.77-9.29-2.8-18.24-8.2-25.83-2.67-3.75-7.05-6.64-11.5-6.29a10.39,10.39,0,0,0-7.63,4.57,10.25,10.25,0,0,0-1.07,1.87c-10.53-.24-15.18,10.37-17.53,19.32a39.67,39.67,0,0,0,7.55,3.43A70.43,70.43,0,0,0,397.13,262.87Z" transform="translate(-42.62 -5.49)" style="fill:#545d78"/><path d="M402.41,169.55a16.18,16.18,0,0,0-.29-4.06,10.6,10.6,0,0,0,6.21.17,17.44,17.44,0,0,0,2.94-1.12c.34-.16,1-.66,1.51-1-1.23,4.56-1.14,9.33,1.69,13.25a15.63,15.63,0,0,1-7.69,3.27c-2.39.41-8.1.78-6.73-3.23.45-1.32,1.42-2.33,1.8-3.69A17.05,17.05,0,0,0,402.41,169.55Z" transform="translate(-42.62 -5.49)" style="fill:#f7b699"/><path d="M407.94,165.75a10.57,10.57,0,0,1-5.82-.26,16.18,16.18,0,0,1,.29,4.06,17.05,17.05,0,0,1-.56,3.62l-.12.36c.23,0,.47-.07.7-.12A14.18,14.18,0,0,0,407.94,165.75Z" transform="translate(-42.62 -5.49)" style="fill:#c46e58"/><path d="M399.32,147.57c1.4-2,3.07.82,5.52.88,2.14.06,3.8,0,5.69,1.12a8,8,0,0,1,3.68,4.41,15.1,15.1,0,0,1,.39,1.5,28.06,28.06,0,0,1,0,5l0,.1a15.14,15.14,0,0,1-5.61,6.83,7.92,7.92,0,0,1-8,.68,6.77,6.77,0,0,1-3.15-3.45,14.84,14.84,0,0,1-1-5.21C396.76,156.75,397.77,149.8,399.32,147.57Z" transform="translate(-42.62 -5.49)" style="fill:#f7b699"/><path d="M402.09,152.26c-1.92.27-3.49.58-5.25-.45a6.29,6.29,0,0,1-2.81-3.55,7.8,7.8,0,0,1-.24-1.35c0-.21,0-1,0-1.14a2.26,2.26,0,0,0,2.86.41,9.36,9.36,0,0,0,2.31-2.14,13,13,0,0,1,6.26-3.82,10.44,10.44,0,0,1,7.23.74,9,9,0,0,1,3.42,3.11,7.91,7.91,0,0,1,1,2.11c.09.35.36,2.15-.08,2.31a1.81,1.81,0,0,1,1.93.66,4.25,4.25,0,0,1,.76,2,13.58,13.58,0,0,1-.89,7.18,54.52,54.52,0,0,1-2.43,5,8,8,0,0,1-3.3,3.26,11.79,11.79,0,0,1-5.82.7,4.09,4.09,0,0,1-4-2.5,8.33,8.33,0,0,1-.5-2.61c0-.37-.2-2.94.1-3.1a3.11,3.11,0,0,1-1.17.42,1.09,1.09,0,0,1-1.07-.52,1.64,1.64,0,0,1,.05-1.15Z" transform="translate(-42.62 -5.49)" style="fill:#485070"/><path d="M417.26,143.89a6.47,6.47,0,0,1-1.58,6.26" transform="translate(-42.62 -5.49)" style="fill:none;stroke:#485070;stroke-linecap:round;stroke-miterlimit:10;stroke-width:0.75px"/><path d="M420.38,149.2a2.84,2.84,0,0,0-3.5-.71" transform="translate(-42.62 -5.49)" style="fill:none;stroke:#485070;stroke-linecap:round;stroke-miterlimit:10;stroke-width:0.75px"/><path d="M406.63,160.52a2.86,2.86,0,1,1-1.68-3.68A2.87,2.87,0,0,1,406.63,160.52Z" transform="translate(-42.62 -5.49)" style="fill:#f7b699"/><path d="M404.9,158.57a1.22,1.22,0,0,0-1.2,0,1.24,1.24,0,0,0-.6,1,.84.84,0,0,1,1.07,1.13" transform="translate(-42.62 -5.49)" style="fill:none;stroke:#485070;stroke-linecap:round;stroke-linejoin:round;stroke-width:0.75px"/><path d="M366.94,192.93a2.66,2.66,0,0,1,1.69-2c.88-.3,2.37-.3,2.67-1.19.14-.44.29-.61-.07-.91a2.2,2.2,0,0,0-1.29-.46,3.89,3.89,0,0,0-3.57,2c-.21.39-.51.9-.93.78a.78.78,0,0,1-.42-.45c-.5-1.16.19-2.47.86-3.55a6.13,6.13,0,0,1,2-2.23,5.87,5.87,0,0,1,3.28-.44c2.25.16,4.62.33,6.53,1.67.5.35,1,.76,1.45,1.12a16.32,16.32,0,0,0,4.28,1.91c-.46,1.61-.93,3.22-1.39,4.84a.45.45,0,0,1-.13.22.42.42,0,0,1-.27,0c-2.74-.67-5.9-1.23-8.65-1.66A20.53,20.53,0,0,0,366.94,192.93Z" transform="translate(-42.62 -5.49)" style="fill:#f7b699"/><path d="M382,185.6a17.32,17.32,0,0,0-3.73,11.24l5.28,2.11c.61-2.79,1.21-5.58,1.82-8.37.18-.84.93-2.62.45-3.31S382.86,186,382,185.6Z" transform="translate(-42.62 -5.49)" style="fill:#fff"/><path d="M400.16,192.21a38.33,38.33,0,0,0-4.54-2.39c-2.72-1.22-5.57-2.22-8.3-3.16a25.53,25.53,0,0,0-3.19-1c-3,3.17-4,8.54-3.65,13,3.13,2.74,7.71,4.37,11.16,6.52a36.67,36.67,0,0,0,6,3.31,10.49,10.49,0,0,0,6.69.57,4.23,4.23,0,0,0,2.77-2.07,5,5,0,0,0,.34-2.18A15.68,15.68,0,0,0,400.16,192.21Z" transform="translate(-42.62 -5.49)" style="fill:#545d78"/><path d="M348.6,209.8a8.27,8.27,0,0,1-.58-6.93,3,3,0,0,1,1.7-1.92,2.66,2.66,0,0,1,2.77,1.14,12.85,12.85,0,0,1,1.35,2.88,13.2,13.2,0,0,0,1.72,3,7.59,7.59,0,0,1,1.82,3,3,3,0,0,1-.83,2.61C354,216.07,349.82,212,348.6,209.8Z" transform="translate(-42.62 -5.49)" style="fill:#f7b699"/><polygon points="334.27 202.79 319.1 210.15 299.02 191.93 314.2 184.57 334.27 202.79" style="fill:#f4ae2d"/><polygon points="331.79 202.03 318.76 208.35 301.41 192.61 314.45 186.29 331.79 202.03" style="fill:#fff"/><polygon points="316.43 189.62 305.6 194.87 304.54 193.91 315.37 188.66 316.43 189.62" style="fill:#c8ddf7"/><polygon points="321.96 194.64 311.13 199.89 310.07 198.93 320.9 193.68 321.96 194.64" style="fill:#c8ddf7"/><polygon points="323.79 196.31 312.96 201.56 311.91 200.6 322.74 195.35 323.79 196.31" style="fill:#c8ddf7"/><polygon points="325.63 197.97 314.8 203.22 313.74 202.26 324.57 197.01 325.63 197.97" style="fill:#c8ddf7"/><polygon points="327.46 199.63 316.63 204.88 315.57 203.93 326.4 198.68 327.46 199.63" style="fill:#c8ddf7"/><polygon points="329.29 201.3 318.46 206.55 317.4 205.59 328.24 200.34 329.29 201.3" style="fill:#c8ddf7"/><polygon points="313.8 187.77 304.69 192.19 300.82 188.67 309.93 184.26 313.8 187.77" style="fill:#485070"/><path d="M350.17,208.13a4.57,4.57,0,0,0-.41.57c-1.15,1.84,1.07,3.55,2.49,4.55,3.2,2.25,7.12,3.34,10.85,4.42,2.1.61,8.18-.89,6.5-4.19-1.15-2.25-4.54-3.55-6.77-4.15-2.32-.43-4.3-1.4-5.17-3.75-.38-1-.54-2.16-.88-3.22a1.51,1.51,0,0,0-.39-.71.61.61,0,0,0-.75-.08.77.77,0,0,0-.23.39c-.65,1.81.51,3.16-1.72,4.22-.74.35-1.55.55-2.27.94A4.71,4.71,0,0,0,350.17,208.13Z" transform="translate(-42.62 -5.49)" style="fill:#f7b699"/><path d="M361.35,206.17a17.3,17.3,0,0,0-2.5,11.57l5.48,1.53.9-8.51c.09-.85.64-2.71.1-3.34S362.24,206.44,361.35,206.17Z" transform="translate(-42.62 -5.49)" style="fill:#fff"/><path d="M398.89,173.13a6.78,6.78,0,0,1,4.05-1.28l11.12-1q1.05,3.72,2.11,7.44c0-.1-12,.37-13.17.34s-5.11.35-5.61-.77S398,174,398.89,173.13Z" transform="translate(-42.62 -5.49)" style="fill:#fff"/><path d="M423.26,234.94c0-3.95.23-7.89.48-11.83.33-5.13.72-10.26.78-15.41a104.41,104.41,0,0,0-1.27-19.11c-.27-1.57-.6-3.12-1-4.64-.08-.32-.16-.65-.25-1-1.19-2.83-3.43-6.59-6.42-8.26a12.35,12.35,0,0,0-1.49,0q-5.16.34-10.26,1.14c-2.34.36-4,.66-5.72,2.45-4.39,4.57-8.51,14.82-9.66,21.11-1.09,6-.66,6.36-1.29,12.42q-1.11,10.83-3.15,21.54c-1.15,6-2.86,12.54-7.85,16.09,8.28,3.47,16.66,7,25.53,8.36s18.42.46,26-4.41C424.1,247.93,423.24,241.49,423.26,234.94Z" transform="translate(-42.62 -5.49)" style="fill:#757e96"/><path d="M402.78,194.27a4.39,4.39,0,0,0-1.38-1.72,3.84,3.84,0,0,0-2.28-.53c-3.47.16-6.22,3-8.07,5.93s-3.29,6.26-5.93,8.51c-4.61,3.94-15.72.73-20.88-.42-3.93,3.84-4.35,8.29-2.31,13.47,6.92,3,21.48,10.25,29,6.66a15.87,15.87,0,0,0,6.21-5.91,44.5,44.5,0,0,0,2.52-4.45,42.86,42.86,0,0,0,4.17-10.49A16.59,16.59,0,0,0,402.78,194.27Z" transform="translate(-42.62 -5.49)" style="fill:#757e96"/><path d="M405.86,181.78a7.31,7.31,0,0,0-9-1c-1.63,1-2.46,3.13-3.3,4.8A46.85,46.85,0,0,0,390.9,192c-.74,2.25-1.31,4.55-2,6.82-1.14,3.71-2.62,7.33-3.47,11.12s-1,7.86.38,11.47c2,5.16,8.83,2.42,11.86-.45,2.6-2.47,3.85-6,5-9.41s2.34-6.83,3.5-10.25a40.38,40.38,0,0,0,2.32-10.39C408.69,187.46,408.09,184.15,405.86,181.78Z" transform="translate(-42.62 -5.49)" style="fill:#757e96"/><path d="M387.46,203.21a72.36,72.36,0,0,1,8.39-21.53" transform="translate(-42.62 -5.49)" style="fill:none;stroke:#485070;stroke-miterlimit:10;stroke-width:0.75px"/><path d="M408.2,196.74l-4.47,12c-1.07,2.88-2.08,6.56-4.11,8.93s-3.91,5-6.39,6.9a12.13,12.13,0,0,1-8.49,2.88" transform="translate(-42.62 -5.49)" style="fill:none;stroke:#485070;stroke-miterlimit:10;stroke-width:0.75px"/><path d="M409.83,197.8a8.41,8.41,0,0,0-3.21,3.27" transform="translate(-42.62 -5.49)" style="fill:none;stroke:#485070;stroke-miterlimit:10;stroke-width:0.75px"/><path d="M363.11,196.05l-1.79,1,.91-1.82L373,184a.6.6,0,0,1,.86,0h0a.63.63,0,0,1,0,.87Z" transform="translate(-42.62 -5.49)" style="fill:#485070"/></g></svg>