<svg width="166" height="44" viewBox="0 0 166 44" fill="none" xmlns="http://www.w3.org/2000/svg">
<path d="M50.9179 17.637C50.9179 17.637 53.4975 12.9937 59.4307 14.2835V14.8639C59.4307 16.2827 58.1409 17.379 56.7221 17.1856C55.2388 16.9276 53.3041 17.3145 51.8853 19.7652C51.2404 20.8615 50.9179 22.0869 50.9179 23.3122V34.4046H48.1448V14.6704H50.9179V17.637Z" fill="#04263D" stroke="#04263D" stroke-width="0.75" stroke-miterlimit="10"/>
<path d="M32.0222 33.1148C30.6034 32.2764 29.4426 31.0511 28.6042 29.5033C27.7658 27.9555 27.3789 26.2143 27.3789 24.2151C27.3789 22.2158 27.7658 20.4746 28.6042 18.9268C29.3781 17.379 30.5389 16.1537 31.9577 15.3153C33.3765 14.4769 35.0533 14.0255 36.859 14.0255C38.4068 14.0255 39.7611 14.348 40.9219 15.0574C41.8248 15.5733 42.6632 16.2827 43.4371 17.1211C43.824 17.508 43.7595 18.1529 43.3081 18.4754L42.7277 18.9268C42.3407 19.2493 41.7603 19.1848 41.4379 18.7978C40.2125 17.3145 38.6648 16.6051 36.7945 16.6051C35.5047 16.6051 34.3439 16.9276 33.3765 17.5725C32.3447 18.2174 31.5708 19.1203 30.9904 20.2811C30.4099 21.442 30.152 22.7963 30.152 24.2151C30.152 25.6339 30.4099 26.9882 30.9904 28.149C31.5708 29.3098 32.3447 30.2127 33.3765 30.8576C34.4084 31.5025 35.5692 31.825 36.7945 31.825C38.0844 31.825 39.1807 31.6315 40.0191 31.1801C40.664 30.8576 41.2444 30.4062 41.7603 29.8258C42.0828 29.5033 42.5987 29.4388 42.9856 29.6968L43.6306 30.1482C44.082 30.4707 44.1465 31.1156 43.7595 31.5025C42.9857 32.2764 42.1473 32.8568 41.1154 33.3727C39.8256 34.0177 38.3423 34.4046 36.859 34.4046C35.1178 34.4046 33.5055 33.9532 32.0222 33.1148Z" fill="#04263D" stroke="#04263D" stroke-width="0.75" stroke-miterlimit="10"/>
<path d="M74.0058 15.2508C75.4246 16.0892 76.4565 17.2501 77.2948 18.6688C78.0687 20.1521 78.4557 21.7644 78.4557 23.5702C78.4557 24.0861 78.4557 24.473 78.3912 24.731H62.7199C62.8489 26.6657 63.4938 28.3425 64.6546 29.7613C65.8155 31.1801 67.4277 31.825 69.427 31.825C71.0392 31.825 72.3935 31.5025 73.4899 30.9221C74.3283 30.4707 75.0377 29.8258 75.6181 29.1164C75.9405 28.7294 76.4565 28.6004 76.8434 28.9229L77.4883 29.3743C77.9397 29.6968 78.0042 30.2772 77.6818 30.6641C76.8434 31.696 75.876 32.5344 74.7152 33.1793C73.2319 33.9532 71.4907 34.4046 69.4914 34.4046C67.6212 34.4046 66.0089 33.9532 64.5257 33.1148C63.1069 32.2764 61.946 31.0511 61.1076 29.5033C60.2693 27.9555 59.8823 26.2143 59.8823 24.2151C59.8823 22.2158 60.2693 20.4746 61.1076 18.9268C61.8815 17.379 63.0424 16.1537 64.4612 15.3153C65.88 14.4769 67.4922 14.0255 69.3625 14.0255C71.1037 14.0255 72.6515 14.4125 74.0058 15.2508ZM75.6826 22.4738C75.4246 20.4746 74.7152 18.9913 73.6834 18.0239C72.6515 17.0566 71.1682 16.5406 69.3625 16.5406C67.6212 16.5406 66.1379 17.1211 65.0416 18.2174C63.8808 19.3782 63.1714 20.797 62.9134 22.4738H75.6826Z" fill="#04263D" stroke="#04263D" stroke-width="0.75" stroke-miterlimit="10"/>
<path d="M100.769 14.1545V34.4046H97.9964V30.9221C97.2225 32.0184 96.2551 32.8568 95.0943 33.5017C93.9335 34.0821 92.7081 34.4046 91.3538 34.4046C89.5481 34.4046 87.8713 33.9531 86.4525 33.1147C85.0337 32.2764 83.8729 31.0511 83.0345 29.5033C82.1961 27.9555 81.8092 26.2142 81.8092 24.215C81.8092 22.2803 82.1961 20.539 83.0345 18.9913C83.8084 17.4435 84.9693 16.2827 86.3881 15.3798C87.8069 14.5414 89.4191 14.09 91.2893 14.09C92.7081 14.09 93.9335 14.4124 95.0943 14.9928C96.2551 15.5733 97.2225 16.4761 97.9964 17.5725V16.9921C97.9964 15.3798 99.2217 14.1545 100.769 14.1545ZM94.7719 30.9221C95.8037 30.2772 96.5776 29.3743 97.158 28.2135C97.7384 27.0526 97.9964 25.6983 97.9964 24.2795C97.9964 22.8607 97.7384 21.5064 97.158 20.3456C96.5776 19.1847 95.8037 18.2819 94.7719 17.637C93.74 16.9921 92.5792 16.6696 91.2893 16.6696C89.9995 16.6696 88.8387 16.9921 87.8713 17.637C86.8395 18.2819 86.0656 19.1847 85.4852 20.3456C84.9048 21.5064 84.6468 22.7962 84.6468 24.2795C84.6468 25.7628 84.9048 27.1171 85.4852 28.2779C86.0656 29.4388 86.8395 30.3417 87.8713 30.9866C88.9032 31.6315 89.9995 31.9539 91.2893 31.9539C92.5792 31.8894 93.74 31.567 94.7719 30.9221Z" fill="#04263D" stroke="#04263D" stroke-width="0.75" stroke-miterlimit="10"/>
<path d="M108.315 34.4045V16.992H104.123V14.4768H108.315V11.1233C108.315 9.57555 109.54 8.35022 111.088 8.35022V14.4768H115.473V16.992H111.088V34.4045H108.315Z" fill="#04263D" stroke="#04263D" stroke-width="0.75" stroke-miterlimit="10"/>
<path d="M131.854 15.2508C133.273 16.0892 134.305 17.2501 135.143 18.6688C135.917 20.1521 136.304 21.7644 136.304 23.5702C136.304 24.0861 136.304 24.473 136.239 24.731H120.504C120.633 26.6657 121.277 28.3425 122.438 29.7613C123.599 31.1801 125.211 31.825 127.211 31.825C128.823 31.825 130.177 31.5025 131.273 30.9221C132.112 30.4707 132.821 29.8258 133.402 29.1164C133.724 28.7294 134.24 28.6004 134.627 28.9229L135.272 29.3743C135.723 29.6968 135.788 30.2772 135.465 30.6641C134.627 31.696 133.66 32.5344 132.499 33.1793C131.016 33.9532 129.274 34.4046 127.275 34.4046C125.405 34.4046 123.793 33.9532 122.309 33.1148C120.89 32.2764 119.73 31.0511 118.891 29.5033C118.053 27.9555 117.666 26.2143 117.666 24.2151C117.666 22.2158 118.053 20.4746 118.891 18.9268C119.665 17.379 120.826 16.1537 122.245 15.3153C123.664 14.4769 125.276 14.0255 127.146 14.0255C128.952 14.0255 130.5 14.4125 131.854 15.2508ZM133.531 22.4738C133.273 20.4746 132.563 18.9913 131.531 18.0239C130.5 17.0566 129.016 16.5406 127.211 16.5406C125.469 16.5406 123.986 17.1211 122.89 18.2174C121.729 19.3782 121.019 20.797 120.762 22.4738H133.531Z" fill="#04263D" stroke="#04263D" stroke-width="0.75" stroke-miterlimit="10"/>
<path d="M140.625 34.4045V8.41471C140.625 6.86693 141.85 5.6416 143.398 5.6416V34.4045H140.625Z" fill="#04263D" stroke="#04263D" stroke-width="0.75" stroke-miterlimit="10"/>
<path d="M161.842 14.4769H164.486L154.168 42.7239H152.684C152.039 42.7239 151.588 42.079 151.782 41.4986L154.232 34.6626L146.493 14.4769H149.395L155.715 30.3417L161.842 14.4769Z" fill="#04263D" stroke="#04263D" stroke-width="0.75" stroke-miterlimit="10"/>
<path d="M10.3534 38.4675C9.25702 38.4675 8.28966 38.661 7.3223 38.9834C7.9672 40.0153 8.61211 40.9827 9.19253 41.7565C9.77294 42.5949 11.0628 42.5304 11.5787 41.6921L13.2554 38.9834C12.3526 38.661 11.3852 38.4675 10.3534 38.4675Z" fill="#04263D"/>
<path d="M4.29124 16.4761C6.35495 16.4761 8.03171 14.7993 8.03171 12.7356C8.03171 10.6719 6.35495 8.99512 4.29124 8.99512C2.22753 8.99512 0.550781 10.6719 0.550781 12.7356C0.550781 14.7993 2.22753 16.4761 4.29124 16.4761Z" fill="#F05151"/>
<path d="M16.4153 8.41477C18.4811 8.41477 20.1558 6.74011 20.1558 4.67431C20.1558 2.6085 18.4811 0.933838 16.4153 0.933838C14.3495 0.933838 12.6749 2.6085 12.6749 4.67431C12.6749 6.74011 14.3495 8.41477 16.4153 8.41477Z" fill="#FFC647"/>
<path d="M10.6112 28.278C7.45115 28.278 4.67805 29.6323 2.67883 31.7605C2.74332 31.825 5.0005 35.5009 6.74176 38.3385C7.8381 37.8871 9.06342 37.6291 10.2887 37.6291C11.5141 37.6291 12.6749 37.8871 13.7068 38.274C13.7068 38.274 17.7697 31.2445 17.8342 31.18C16.0284 29.3743 13.4488 28.278 10.6112 28.278Z" fill="#64C5B4"/>
<path d="M10.6113 28.2779C13.4489 28.2779 16.0286 29.3743 17.9633 31.18C19.2531 29.5677 20.027 27.504 20.027 25.2469V11.3813C14.8032 11.3813 10.5469 15.6377 10.5469 20.8615V24.602C10.0309 21.3774 6.0325 18.7978 1.1312 18.7978V28.3424C1.1312 29.6322 1.71161 30.7931 2.61449 31.8249C4.6137 29.6322 7.45129 28.2779 10.6113 28.2779Z" fill="#04263D"/>
</svg>
