<svg width="834" height="65" viewBox="0 0 834 65" fill="none" xmlns="http://www.w3.org/2000/svg">
<path d="M56.6182 32.5598C56.6182 46.7561 44.9641 58.2607 30.9173 58.2607C16.721 58.2607 5.2164 46.7561 5.2164 32.5598C5.2164 18.513 16.721 6.84888 30.9173 6.84888C44.9641 6.85885 56.6182 18.513 56.6182 32.5598Z" fill="#0066B3"/>
<path d="M31.2064 9.25159C31.2064 9.40113 31.0569 9.40113 31.0569 9.40113C30.9074 9.40113 30.7578 9.40113 30.7578 9.25159C30.7578 9.10205 30.9074 9.10205 31.0569 9.10205C31.0669 9.10205 31.2064 9.10205 31.2064 9.25159Z" fill="white"/>
<path d="M32.7019 12.3919C32.7019 12.5414 32.5523 12.6909 32.4028 12.6909C32.2532 12.6909 32.1037 12.5414 32.1037 12.3919C32.1037 12.2423 32.2532 12.0928 32.4028 12.0928C32.5523 12.0928 32.7019 12.2423 32.7019 12.3919Z" fill="white"/>
<path d="M36.4403 17.6157C36.4403 17.7653 36.2908 17.9148 36.1412 17.9148C35.9917 17.9148 35.8422 17.7653 35.8422 17.6157C35.8422 17.4662 35.9917 17.3167 36.1412 17.3167C36.2908 17.3167 36.4403 17.4662 36.4403 17.6157Z" fill="white"/>
<path d="M30.3192 14.1864C30.3192 14.3359 30.3192 14.4855 30.1696 14.4855C30.0201 14.4855 30.0201 14.3359 30.0201 14.1864C30.0201 14.0369 30.0201 14.0369 30.1696 14.0369C30.3192 14.0369 30.3192 14.0369 30.3192 14.1864Z" fill="white"/>
<path d="M32.5523 15.3727C32.5523 15.5222 32.5523 15.6718 32.4027 15.6718C32.2532 15.6718 32.2532 15.5222 32.2532 15.3727C32.2532 15.2231 32.2532 15.2231 32.4027 15.2231C32.5523 15.2231 32.5523 15.2231 32.5523 15.3727Z" fill="white"/>
<path d="M29.721 12.0928C29.721 12.2423 29.5715 12.3919 29.4219 12.3919C29.2724 12.3919 29.1229 12.2423 29.1229 12.0928C29.1229 11.9432 29.2724 11.7937 29.4219 11.7937C29.5715 11.7937 29.721 11.9432 29.721 12.0928Z" fill="white"/>
<path d="M26.2816 14.1863L26.1321 14.3358C25.9825 14.3358 25.833 14.1863 25.833 14.1863C25.833 14.0367 25.9825 13.8872 26.1321 13.8872C26.1321 13.8872 26.2816 14.0367 26.2816 14.1863Z" fill="white"/>
<path d="M26.8797 14.625L26.7302 14.7745C26.5807 14.7745 26.4311 14.625 26.4311 14.625C26.4311 14.4755 26.5807 14.3259 26.7302 14.3259C26.7302 14.3359 26.8797 14.4755 26.8797 14.625Z" fill="white"/>
<path d="M27.4779 14.924C27.4779 15.0735 27.4779 15.223 27.3284 15.223C27.1788 15.223 27.0293 15.0735 27.0293 14.924C27.0293 14.924 27.1788 14.7744 27.3284 14.7744C27.4779 14.7744 27.4779 14.924 27.4779 14.924Z" fill="white"/>
<path d="M26.5807 15.8213C26.5807 15.8213 26.4311 15.9708 26.2816 15.9708L26.132 15.8213C26.132 15.6718 26.2816 15.5222 26.2816 15.5222C26.4311 15.5222 26.5807 15.6718 26.5807 15.8213Z" fill="white"/>
<path d="M21.6459 19.2607C21.6459 19.2607 21.6459 19.4103 21.4963 19.4103C21.3468 19.4103 21.3468 19.2607 21.3468 19.2607C21.3468 19.1112 21.3468 18.9617 21.4963 18.9617C21.6459 18.9617 21.6459 19.1112 21.6459 19.2607Z" fill="white"/>
<path d="M22.5431 20.3074C22.5431 20.4569 22.5431 20.4569 22.3936 20.4569C22.244 20.4569 22.244 20.4569 22.244 20.3074C22.244 20.1578 22.244 20.0083 22.3936 20.0083C22.5431 20.0083 22.5431 20.1578 22.5431 20.3074Z" fill="white"/>
<path d="M21.9449 37.9432C21.9449 38.0928 21.7954 38.2423 21.6458 38.2423C21.4963 38.2423 21.4963 38.0928 21.4963 37.9432C21.4963 37.7937 21.4963 37.7937 21.6458 37.7937C21.7954 37.7937 21.9449 37.7937 21.9449 37.9432Z" fill="white"/>
<path d="M22.0945 42.8779C22.0945 43.0275 21.9449 43.177 21.7954 43.177C21.6458 43.177 21.4963 43.0275 21.4963 42.8779C21.4963 42.7284 21.6458 42.5789 21.7954 42.5789C21.9449 42.5789 22.0945 42.7284 22.0945 42.8779Z" fill="white"/>
<path d="M19.2532 45.4202L19.1037 45.5697C18.9541 45.5697 18.8046 45.4202 18.8046 45.4202C18.8046 45.2706 18.9541 45.1211 19.1037 45.1211C19.1037 45.1211 19.2532 45.2706 19.2532 45.4202Z" fill="white"/>
<path d="M15.9633 46.3175C15.9633 46.467 15.8138 46.6166 15.6643 46.6166C15.5147 46.6166 15.3652 46.467 15.3652 46.3175C15.3652 46.168 15.5147 46.168 15.6643 46.168C15.8138 46.168 15.9633 46.168 15.9633 46.3175Z" fill="white"/>
<path d="M15.2156 44.0743C15.2156 44.2239 15.0661 44.3734 15.0661 44.3734C14.9166 44.3734 14.767 44.2239 14.767 44.0743C14.767 43.9248 14.9166 43.9248 15.0661 43.9248C15.0661 43.9248 15.2156 43.9248 15.2156 44.0743Z" fill="white"/>
<path d="M14.9266 45.5698C14.9266 45.7194 14.777 45.7194 14.6275 45.7194C14.4779 45.7194 14.4779 45.7194 14.4779 45.5698C14.4779 45.4203 14.4779 45.2708 14.6275 45.2708C14.777 45.2708 14.9266 45.4203 14.9266 45.5698Z" fill="white"/>
<path d="M12.3844 44.3735C12.3844 44.5231 12.2348 44.5231 12.2348 44.5231C12.0853 44.5231 11.9358 44.5231 11.9358 44.3735C11.9358 44.224 12.0853 44.0745 12.2348 44.0745C12.2348 44.0745 12.3844 44.224 12.3844 44.3735Z" fill="white"/>
<path d="M21.0477 48.4011C21.0477 48.5507 20.8982 48.5507 20.8982 48.5507C20.7486 48.5507 20.5991 48.5507 20.5991 48.4011C20.5991 48.2516 20.7486 48.1021 20.8982 48.1021C20.8982 48.1021 21.0477 48.2516 21.0477 48.4011Z" fill="white"/>
<path d="M23.5899 46.467C23.5899 46.6166 23.5899 46.7661 23.4403 46.7661C23.2908 46.7661 23.1412 46.6166 23.1412 46.467C23.1412 46.3175 23.2908 46.168 23.4403 46.168C23.5899 46.168 23.5899 46.3175 23.5899 46.467Z" fill="white"/>
<path d="M23.889 48.8497C23.889 48.9993 23.889 49.1488 23.7394 49.1488C23.5899 49.1488 23.5899 48.9993 23.5899 48.8497C23.5899 48.8497 23.5899 48.7002 23.7394 48.7002C23.889 48.7002 23.889 48.8497 23.889 48.8497Z" fill="white"/>
<path d="M34.6458 46.6165C34.6458 46.766 34.6458 46.766 34.4963 46.766C34.3467 46.766 34.1972 46.766 34.1972 46.6165C34.1972 46.4669 34.3467 46.3174 34.4963 46.3174C34.6458 46.3174 34.6458 46.4669 34.6458 46.6165Z" fill="white"/>
<path d="M29.721 48.4011C29.721 48.4011 29.5715 48.5507 29.4219 48.5507L29.2724 48.4011C29.2724 48.2516 29.4219 48.1021 29.4219 48.1021C29.5715 48.1021 29.721 48.2516 29.721 48.4011Z" fill="white"/>
<path d="M43.1696 50.9431C43.1696 50.9431 43.0201 51.0927 42.8705 51.0927L42.721 50.9431C42.721 50.7936 42.8705 50.644 42.8705 50.644C43.0201 50.644 43.1696 50.7936 43.1696 50.9431Z" fill="white"/>
<path d="M44.2164 40.934C44.2164 41.0835 44.0669 41.233 43.9173 41.233C43.7678 41.233 43.7678 41.0835 43.7678 40.934C43.7678 40.7844 43.7678 40.7844 43.9173 40.7844C44.0669 40.7844 44.2164 40.7844 44.2164 40.934Z" fill="white"/>
<path d="M42.1228 42.4294C42.1228 42.579 42.1228 42.579 41.9733 42.579C41.8238 42.579 41.6742 42.579 41.6742 42.4294C41.6742 42.2799 41.8238 42.1304 41.9733 42.1304C42.1228 42.1304 42.1228 42.2799 42.1228 42.4294Z" fill="white"/>
<path d="M44.2164 42.7284C44.2164 42.8779 44.0669 43.0275 43.9173 43.0275C43.7678 43.0275 43.6183 42.8779 43.6183 42.7284C43.6183 42.5789 43.7678 42.5789 43.9173 42.5789C44.0669 42.5789 44.2164 42.5789 44.2164 42.7284Z" fill="white"/>
<path d="M42.1228 45.2706C42.1228 45.4202 42.1228 45.5697 41.9733 45.5697C41.8238 45.5697 41.6742 45.4202 41.6742 45.2706C41.6742 45.1211 41.8238 45.1211 41.9733 45.1211C42.1228 45.1211 42.1228 45.1211 42.1228 45.2706Z" fill="white"/>
<path d="M47.3468 39.588C47.3468 39.7375 47.3468 39.7375 47.1972 39.7375C47.0477 39.7375 47.0477 39.7375 47.0477 39.588C47.0477 39.4385 47.0477 39.4385 47.1972 39.4385C47.3468 39.4385 47.3468 39.4385 47.3468 39.588Z" fill="white"/>
<path d="M47.9449 40.7846C47.9449 40.9341 47.7954 41.0836 47.6458 41.0836C47.4963 41.0836 47.3468 40.9341 47.3468 40.7846C47.3468 40.7846 47.4963 40.635 47.6458 40.635C47.7954 40.635 47.9449 40.7846 47.9449 40.7846Z" fill="white"/>
<path d="M51.5339 42.4294C51.5339 42.579 51.3843 42.579 51.2348 42.579C51.0853 42.579 50.9357 42.579 50.9357 42.4294C50.9357 42.2799 51.0853 42.1304 51.2348 42.1304C51.3843 42.1304 51.5339 42.2799 51.5339 42.4294Z" fill="white"/>
<path d="M47.7954 45.1211C47.7954 45.1211 47.7954 45.2706 47.6458 45.2706C47.4963 45.2706 47.4963 45.1211 47.4963 45.1211C47.4963 44.9716 47.4963 44.822 47.6458 44.822C47.7954 44.822 47.7954 44.9716 47.7954 45.1211Z" fill="white"/>
<path d="M50.188 42.8781C50.188 43.0276 50.0385 43.0276 49.889 43.0276C49.889 43.0276 49.7394 43.0276 49.7394 42.8781C49.7394 42.7285 49.889 42.7285 49.889 42.7285C50.0385 42.7285 50.188 42.7285 50.188 42.8781Z" fill="white"/>
<path d="M49.7394 46.3174L49.5899 46.4669C49.4403 46.4669 49.2908 46.3174 49.2908 46.3174C49.2908 46.1679 49.4403 46.0183 49.5899 46.0183C49.5899 46.0183 49.7394 46.1679 49.7394 46.3174Z" fill="white"/>
<path d="M35.6926 11.7936C35.6926 11.6441 35.8422 11.6441 35.9917 11.4945C35.9917 11.0459 35.9917 11.0459 35.9917 11.0459C36.1413 11.4945 36.1413 11.4945 36.1413 11.4945C36.2908 11.6441 36.4403 11.6441 36.4403 11.7936C37.0385 11.9431 37.0385 11.9431 37.0385 11.9431C36.4403 12.0927 36.4403 12.0927 36.4403 12.0927C36.4403 12.0927 36.2908 12.2422 36.1413 12.2422C35.9917 12.8404 35.9917 12.8404 35.9917 12.8404C35.9917 12.2422 35.9917 12.2422 35.9917 12.2422C35.8422 12.2422 35.6926 12.0927 35.6926 11.9431C35.244 11.9431 35.244 11.9431 35.244 11.9431C35.6926 11.7936 35.6926 11.7936 35.6926 11.7936Z" fill="white"/>
<path d="M21.1972 51.3919C21.3468 51.2423 21.3468 51.0928 21.4963 51.0928C21.6458 50.4946 21.6458 50.4946 21.6458 50.4946C21.7954 51.0928 21.7954 51.0928 21.7954 51.0928C21.7954 51.0928 21.9449 51.2423 21.9449 51.3919C22.5431 51.3919 22.5431 51.3919 22.5431 51.3919C21.9449 51.5414 21.9449 51.5414 21.9449 51.5414C21.9449 51.6909 21.7954 51.6909 21.6458 51.8405C21.6458 52.2891 21.6458 52.2891 21.6458 52.2891C21.4963 51.8405 21.4963 51.8405 21.4963 51.8405C21.3468 51.6909 21.3468 51.6909 21.1972 51.5414C20.7486 51.3919 20.7486 51.3919 20.7486 51.3919C21.1972 51.3919 21.1972 51.3919 21.1972 51.3919Z" fill="white"/>
<path d="M47.7954 46.1679C47.7954 46.1679 47.9449 46.0183 48.0945 46.0183C48.244 45.4202 48.244 45.4202 48.244 45.4202C48.244 46.0183 48.244 46.0183 48.244 46.0183C48.3936 46.0183 48.5431 46.1679 48.5431 46.3174C49.1413 46.3174 49.1413 46.3174 49.1413 46.3174C48.5431 46.4669 48.5431 46.4669 48.5431 46.4669C48.5431 46.6165 48.3936 46.6165 48.244 46.766C48.244 47.2146 48.244 47.2146 48.244 47.2146C48.0945 46.6165 48.0945 46.6165 48.0945 46.6165C47.9449 46.6165 47.7954 46.6165 47.7954 46.4669C47.3468 46.3174 47.3468 46.3174 47.3468 46.3174C47.7954 46.1679 47.7954 46.1679 47.7954 46.1679Z" fill="white"/>
<path d="M49.8889 40.4855C50.0385 40.4855 50.0385 40.336 50.188 40.336C50.3375 39.7378 50.3375 39.7378 50.3375 39.7378C50.3375 40.336 50.3375 40.336 50.3375 40.336C50.4871 40.336 50.6366 40.4855 50.6366 40.635C51.2348 40.635 51.2348 40.635 51.2348 40.635C50.6366 40.7846 50.6366 40.7846 50.6366 40.7846C50.6366 40.9341 50.4871 40.9341 50.3375 41.0837C50.3375 41.5323 50.3375 41.5323 50.3375 41.5323C50.188 40.9341 50.188 40.9341 50.188 40.9341C50.0385 40.9341 49.8889 40.9341 49.8889 40.7846C49.4403 40.635 49.4403 40.635 49.4403 40.635C49.8889 40.4855 49.8889 40.4855 49.8889 40.4855Z" fill="white"/>
<path d="M23.889 19.5597C23.889 19.4102 24.0385 19.4102 24.188 19.2606C24.188 18.812 24.188 18.812 24.188 18.812C24.3376 19.2606 24.3376 19.2606 24.3376 19.2606C24.4871 19.4102 24.4871 19.4102 24.6367 19.5597C25.0853 19.7093 25.0853 19.7093 25.0853 19.7093C24.4871 19.7093 24.4871 19.7093 24.4871 19.7093C24.4871 19.8588 24.4871 20.0083 24.3376 20.0083C24.188 20.6065 24.188 20.6065 24.188 20.6065C24.0385 20.0083 24.0385 20.0083 24.0385 20.0083C24.0385 20.0083 23.889 19.8588 23.889 19.7093C23.2908 19.7093 23.2908 19.7093 23.2908 19.7093C23.889 19.5597 23.889 19.5597 23.889 19.5597Z" fill="white"/>
<path d="M22.0945 31.5229C24.0385 34.8128 26.2816 37.355 28.0761 39.5981C29.5715 41.6917 32.7118 42.7384 31.665 43.6357C30.4687 44.6825 27.4779 39.8972 27.4779 39.8972C25.5339 37.5045 23.5899 34.9624 21.6458 31.6725C22.0945 31.5229 22.0945 31.5229 22.0945 31.5229Z" fill="white"/>
<path d="M2.0661 40.1863C11.1781 34.2047 27.3184 30.3266 40.4779 25.0927C50.4871 21.0551 59.31 16.1203 64.2348 9.25146C51.9825 33.9056 18.2064 31.0643 2.66426 40.4854C2.0661 40.1863 2.0661 40.1863 2.0661 40.1863Z" fill="#ED1C24"/>
<path d="M23.4403 27.9341H27.9265L31.3659 36.3083L32.4127 37.3551H26.4311L27.4779 36.3083L27.1788 35.2615H23.7394L23.4403 36.4578L24.188 37.3551H21.1972L22.244 36.3083L24.3376 28.9908L23.4403 27.9341ZM26.5807 33.7562L25.2348 30.4663L24.188 33.7562H26.5807Z" fill="white"/>
<path d="M44.8146 27.9341H49.4503L52.8897 36.3083L53.9365 37.3551H47.9549L49.0017 36.3083L48.7026 35.2615H45.2632L44.9641 36.4578L45.7118 37.3551H42.721L43.7678 36.3083L45.8613 28.9908L44.8146 27.9341ZM48.0945 33.7562L46.7486 30.4663L45.7018 33.7562H48.0945Z" fill="white"/>
<path d="M17.1597 33.7561C17.1597 33.457 17.1597 28.9709 17.1597 28.9709C16.2624 27.9241 16.2624 27.9241 16.2624 27.9241C19.4028 27.9241 19.4028 27.9241 19.4028 27.9241C18.5055 28.9709 18.5055 28.9709 18.5055 28.9709C18.5055 36.2883 18.5055 36.2883 18.5055 36.2883C19.5523 37.3351 19.5523 37.3351 19.5523 37.3351C15.3652 37.3351 15.3652 37.3351 15.3652 37.3351C11.7762 31.204 11.7762 31.204 11.7762 31.204C11.7762 31.5031 11.7762 36.2883 11.7762 36.2883C12.6735 37.3351 12.6735 37.3351 12.6735 37.3351C9.38361 37.3351 9.38361 37.3351 9.38361 37.3351C10.4304 36.2883 10.4304 36.2883 10.4304 36.2883C10.4304 28.9709 10.4304 28.9709 10.4304 28.9709C9.53315 27.9241 9.53315 27.9241 9.53315 27.9241C13.7203 27.9241 13.7203 27.9241 13.7203 27.9241C17.1597 33.7561 17.1597 33.7561 17.1597 33.7561Z" fill="white"/>
<path d="M41.2256 30.3266C41.0761 27.4854 41.0761 27.4854 41.0761 27.4854C40.1788 28.0835 40.1788 28.0835 40.1788 28.0835C38.833 27.6349 37.188 27.6349 35.9917 28.2331C34.9449 28.6817 33.7486 29.7284 33.8981 31.2238C34.0477 32.7192 35.244 33.3174 36.2908 33.766C37.6366 34.3642 39.132 34.6633 39.132 35.411C39.132 36.0091 38.2348 36.3082 37.6366 36.3082C37.0385 36.3082 34.9449 36.1587 33.8981 34.9623C34.1972 37.9531 34.1972 37.9531 34.1972 37.9531C35.244 37.2054 35.244 37.2054 35.244 37.2054C36.5899 37.6541 38.2348 37.8036 39.7302 37.355C41.2256 36.9064 42.721 35.71 41.8238 33.4669C41.5247 32.5697 40.4779 31.9715 39.8797 31.6725C39.2816 31.5229 37.6366 30.7752 37.188 30.6257C36.5899 30.3266 36.5899 29.2798 37.9357 29.1303C39.132 28.9807 40.9265 30.0275 41.2256 30.3266Z" fill="white"/>
<path d="M9.24402 54.6817C27.6275 35.8496 55.1229 27.1863 64.2448 9.25146C58.7118 26.7377 29.2724 36.2982 9.09448 55.5789C9.24402 54.6817 9.24402 54.6817 9.24402 54.6817Z" fill="#ED1C24"/>
<path d="M21.6459 31.6726C21.4963 31.3735 21.1972 30.9249 21.0477 30.6258C16.1129 21.6633 16.8606 12.691 25.6834 16.579C33.3 20.0184 40.4779 29.2799 43.3192 36.0092C44.665 39 48.254 51.1028 36.7394 46.168C47.6459 50.6541 45.7118 39.2891 39.8798 30.4762C36.5899 25.5414 32.2632 21.3543 29.5715 19.4203C20.4495 12.8405 14.9265 16.8781 21.1972 29.8781C21.4963 30.4762 21.7954 30.9249 22.0945 31.523C21.6459 31.6726 21.6459 31.6726 21.6459 31.6726Z" fill="white"/>
<g clip-path="url(#clip0)">
<path d="M142.221 41.4122L142.154 41.4857C141.073 42.7345 139.821 43.3963 138.532 43.3963C135.841 43.3963 133.888 41.1073 133.888 37.9489C133.888 34.7962 135.841 32.5039 138.532 32.5039C139.821 32.5039 141.073 33.1685 142.154 34.4206L142.221 34.4964L143.951 32.1236L143.905 32.0592C142.466 30.1307 140.739 29.1919 138.616 29.1919C136.485 29.1919 134.538 30.0048 133.134 31.4709C131.609 33.0586 130.804 35.2976 130.804 37.9489C130.804 40.5989 131.609 42.8434 133.134 44.4315C134.538 45.9044 136.485 46.7129 138.616 46.7129C140.739 46.7129 142.466 45.7746 143.905 43.8453L143.951 43.7854L142.221 41.4122Z" fill="#003B70"/>
<path d="M145.7 46.3899H148.757V29.4668H145.7V46.3899Z" fill="#003B70"/>
<path d="M160.734 42.7101C159.918 43.2732 159.159 43.5564 158.477 43.5564C157.489 43.5564 157.043 42.9652 157.043 41.6485V32.6691H160.157V29.4822H157.043V24.2166L154.046 26.035V29.4822H151.461V32.6691H154.046V42.2213C154.046 44.8238 155.406 46.6017 157.435 46.6479C158.813 46.6785 159.644 46.2131 160.149 45.8728L160.178 45.8479L160.914 42.5848L160.734 42.7101L160.734 42.7101Z" fill="#003B70"/>
<path d="M163.266 46.3899H166.325V29.4668H163.266V46.3899Z" fill="#003B70"/>
<path fill-rule="evenodd" clip-rule="evenodd" d="M168.156 26.4641C165.358 21.9691 160.71 19.2874 155.981 19.2874C151.254 19.2874 146.605 21.9691 143.811 26.4641L143.668 26.6954H147.192L147.231 26.6474C149.629 23.8404 152.76 22.356 155.981 22.356C159.202 22.356 162.332 23.8404 164.736 26.6474L164.775 26.6954H168.297L168.156 26.4641Z" fill="#D9261C"/>
</g>
<g clip-path="url(#clip1)">
<path d="M411.551 17V47.9958H432.171V17H411.551ZM429.188 44.8753H414.522V20.1226H429.188V44.8753Z" fill="#FBD42C"/>
<path d="M444.459 27.807H444.43C442.785 25.0333 441.124 22.5832 439.449 20.1169H438.171V30.9054H439.582V23.168H439.596C441.257 25.958 442.917 28.4244 444.592 30.9054H445.87V20.1169H444.459V27.807ZM454.64 30.9054L451.364 20.1169H449.895L446.339 30.9054H447.867L448.764 27.9615H451.863L452.671 30.9054H454.64ZM449.219 26.6353C449.63 25.2172 450.042 23.9094 450.409 22.2428H450.439C450.85 23.9089 451.217 25.2172 451.6 26.6353H449.219ZM456.3 30.9054H458.063V21.566H460.767V20.1169H453.597V21.566H456.3V30.9054H456.3ZM463.087 20.1169H461.339V30.9054H463.087V20.1169ZM468.524 31.0893C471.213 31.0893 472.888 28.5778 472.888 25.3564C472.888 22.3358 471.036 19.9309 468.524 19.9309C466.012 19.9309 464.16 22.3358 464.16 25.3564C464.16 28.5783 465.834 31.0893 468.524 31.0893ZM468.524 21.473C470.273 21.473 471.007 23.3682 471.007 25.357C471.007 27.4219 470.361 29.5488 468.524 29.5488C466.688 29.5488 466.042 27.4224 466.042 25.357C466.042 23.3682 466.776 21.473 468.524 21.473ZM475.37 23.168H475.386C477.045 25.958 478.705 28.4244 480.381 30.9054H481.658V20.1169H480.248V27.807H480.219C478.574 25.0333 476.913 22.5832 475.238 20.1169H473.96V30.9054H475.37V23.168ZM484.551 27.9615H487.652L488.461 30.9054H490.429L487.153 20.1169H485.684L482.127 30.9054H483.657L484.551 27.9615ZM486.199 22.2428H486.228C486.638 23.9089 487.006 25.2172 487.389 26.6353H485.007C485.42 25.2172 485.83 23.9089 486.199 22.2428ZM496.173 29.4558H492.692V20.1169H490.943V30.9054H496.174V29.4558H496.173ZM443.021 43.2445C442.653 43.4452 442.257 43.5072 441.787 43.5072C440.274 43.5072 438.805 41.9961 438.805 39.4383C438.805 36.9883 440.083 35.4309 441.964 35.4309C442.64 35.4309 443.374 35.6926 443.844 36.0005L444.417 34.7221C443.83 34.2587 442.874 33.8893 441.919 33.8893C438.834 33.8893 436.924 36.4634 436.924 39.4068C436.924 42.5819 438.834 45.0483 441.86 45.0483C442.859 45.0483 443.844 44.7724 444.785 44.3852V39.9301H443.021V43.2445ZM448.148 39.9312H451.028V38.4831H448.148V35.5239H451.087V34.0753H446.386V44.8638H451.616V43.4137H448.148V39.9312ZM456.523 33.8898C454.01 33.8898 452.16 36.2942 452.16 39.3154C452.16 42.5362 453.834 45.0488 456.523 45.0488C459.212 45.0488 460.886 42.5362 460.886 39.3154C460.886 36.2942 459.035 33.8898 456.523 33.8898ZM456.523 43.5072C454.686 43.5072 454.04 41.3803 454.04 39.3148C454.04 37.3261 454.774 35.4304 456.523 35.4304C458.271 35.4304 459.006 37.3256 459.006 39.3148C459.006 41.3803 458.36 43.5072 456.523 43.5072ZM467.586 43.2445C467.219 43.4452 466.822 43.5072 466.352 43.5072C464.838 43.5072 463.369 41.9961 463.369 39.4383C463.369 36.9883 464.647 35.4309 466.529 35.4309C467.204 35.4309 467.939 35.6926 468.408 36.0005L468.981 34.7221C468.394 34.2587 467.438 33.8893 466.483 33.8893C463.399 33.8893 461.489 36.4634 461.489 39.4068C461.489 42.5819 463.399 45.0483 466.426 45.0483C467.424 45.0483 468.408 44.7724 469.349 44.3852V39.9301H467.586V43.2445ZM476.901 37.189C476.901 35.0915 475.681 34.0753 473.713 34.0753H470.965V44.8638H472.728V40.795H473.521L475.181 44.8638H477.194L475.123 40.3935C476.253 39.762 476.901 38.4831 476.901 37.189ZM473.463 39.4073C473.286 39.4231 472.874 39.4388 472.727 39.4541V35.5244H473.507C474.549 35.5244 475.136 36.1549 475.136 37.2652C475.136 38.7132 474.3 39.3616 473.463 39.4073ZM480.779 34.0753L477.223 44.8638H478.75L479.647 41.9194H482.747L483.557 44.8638H485.524L482.248 34.0753H480.779ZM480.104 40.5953C480.515 39.1761 480.926 37.8662 481.294 36.2022H481.324C481.734 37.8662 482.102 39.1761 482.484 40.5953H480.104ZM498.424 38.2209H494.766V34.0753H493.017V44.8638H494.766V39.669H498.424V44.8638H500.187V34.1047H498.424V38.2209ZM501.876 44.8628H503.624V34.0753H501.876V44.8628ZM509.795 43.5072C508.091 43.5072 506.65 41.9961 506.65 39.4383C506.65 36.9883 507.959 35.4309 509.751 35.4309C510.427 35.4309 511.132 35.754 511.559 36.0315L512.116 34.7226C511.514 34.2907 510.663 33.8898 509.751 33.8898C506.681 33.8898 504.785 36.4639 504.785 39.4073C504.785 42.5825 506.695 45.0488 509.723 45.0488C510.574 45.0488 511.514 44.6941 512.043 44.3095L511.559 42.9681C511.103 43.276 510.471 43.5072 509.795 43.5072ZM488.829 34.0753H486.084V44.8638H487.847V40.795H488.639C490.741 40.795 492.018 39.0059 492.018 37.189C492.018 35.0915 490.8 34.0753 488.829 34.0753ZM488.58 39.4073C488.404 39.4215 487.979 39.4362 487.846 39.4504V35.5239H488.639C489.668 35.5239 490.256 36.1544 490.256 37.2646C490.255 38.7132 489.418 39.3616 488.58 39.4073Z" fill="black"/>
</g>
<g clip-path="url(#clip2)">
<path d="M613.445 24.7263H607.985C607.804 24.7262 607.629 24.7947 607.492 24.9195C607.354 25.0442 607.263 25.217 607.235 25.4068L605.027 40.2867C605.017 40.3557 605.021 40.4263 605.039 40.4935C605.057 40.5607 605.088 40.623 605.131 40.6761C605.174 40.7292 605.227 40.7717 605.287 40.8009C605.346 40.83 605.411 40.8451 605.477 40.845H608.084C608.265 40.8451 608.44 40.7765 608.577 40.6515C608.715 40.5266 608.806 40.3536 608.834 40.1636L609.429 36.1503C609.457 35.9605 609.548 35.7876 609.685 35.6627C609.823 35.5378 609.997 35.4691 610.178 35.469H611.907C615.503 35.469 617.579 33.6193 618.121 29.9538C618.366 28.3502 618.132 27.0902 617.425 26.2078C616.649 25.2388 615.273 24.7263 613.445 24.7263ZM614.075 30.1609C613.776 32.243 612.279 32.243 610.832 32.243H610.008L610.586 28.3544C610.603 28.2407 610.658 28.1371 610.74 28.0622C610.822 27.9874 610.927 27.9463 611.036 27.9463H611.413C612.399 27.9463 613.329 27.9463 613.81 28.5437C614.097 28.9 614.184 29.4295 614.075 30.1609ZM629.766 30.0938H627.152C627.043 30.0938 626.939 30.1349 626.856 30.2098C626.774 30.2846 626.719 30.3882 626.702 30.502L626.587 31.2792L626.404 30.9975C625.838 30.1244 624.575 29.8325 623.316 29.8325C620.426 29.8325 617.958 32.1582 617.478 35.4206C617.228 37.048 617.583 38.6041 618.452 39.6893C619.249 40.6872 620.389 41.1029 621.745 41.1029C624.073 41.1029 625.364 39.512 625.364 39.512L625.248 40.2841C625.237 40.3532 625.241 40.4238 625.259 40.4911C625.277 40.5584 625.308 40.6208 625.35 40.674C625.393 40.7273 625.446 40.77 625.506 40.7994C625.566 40.8288 625.631 40.844 625.696 40.8441H628.052C628.232 40.8442 628.407 40.7756 628.545 40.6507C628.682 40.5257 628.773 40.3527 628.801 40.1628L630.214 30.6521C630.225 30.5833 630.221 30.5128 630.203 30.4456C630.186 30.3785 630.154 30.3162 630.112 30.2631C630.069 30.21 630.016 30.1674 629.957 30.1382C629.897 30.1089 629.832 30.0938 629.766 30.0938ZM626.122 35.5021C625.87 37.0896 624.684 38.1553 623.172 38.1553C622.413 38.1553 621.806 37.8965 621.416 37.4061C621.03 36.919 620.883 36.2258 621.006 35.4537C621.241 33.8798 622.447 32.7793 623.936 32.7793C624.678 32.7793 625.282 33.0415 625.68 33.5361C626.078 34.0359 626.236 34.7333 626.122 35.5021ZM643.692 30.0938H641.064C640.941 30.094 640.819 30.1264 640.709 30.188C640.6 30.2497 640.506 30.3388 640.436 30.4477L636.812 36.1206L635.276 30.6691C635.229 30.5028 635.133 30.3571 635.002 30.2535C634.87 30.1499 634.711 30.0939 634.548 30.0938H631.966C631.894 30.0936 631.822 30.1118 631.758 30.1469C631.693 30.182 631.637 30.2329 631.595 30.2955C631.553 30.3581 631.525 30.4305 631.515 30.5067C631.504 30.5829 631.511 30.6607 631.534 30.7336L634.428 39.7598L631.707 43.8418C631.659 43.9142 631.63 43.9993 631.624 44.0879C631.619 44.1764 631.636 44.265 631.674 44.3438C631.712 44.4227 631.77 44.4888 631.842 44.535C631.913 44.5811 631.995 44.6055 632.079 44.6055H634.703C634.825 44.6056 634.946 44.5742 635.055 44.5139C635.163 44.4537 635.257 44.3663 635.326 44.2593L644.066 30.8532C644.113 30.7807 644.141 30.6958 644.146 30.6077C644.151 30.5195 644.134 30.4316 644.095 30.3534C644.057 30.2751 643.999 30.2096 643.928 30.1638C643.857 30.1181 643.775 30.0939 643.692 30.0938Z" fill="#253B80"/>
<path d="M652.391 24.7264H646.93C646.75 24.7265 646.575 24.7951 646.438 24.9198C646.3 25.0446 646.209 25.2173 646.181 25.4069L643.973 40.2868C643.963 40.3557 643.967 40.4262 643.984 40.4934C644.002 40.5605 644.034 40.6228 644.076 40.6759C644.119 40.7289 644.172 40.7715 644.231 40.8008C644.291 40.83 644.356 40.8451 644.422 40.8451H647.224C647.35 40.8449 647.473 40.7968 647.569 40.7094C647.665 40.6219 647.728 40.501 647.748 40.3682L648.374 36.1504C648.402 35.9607 648.493 35.7877 648.631 35.6628C648.768 35.5379 648.943 35.4692 649.123 35.4691H650.851C654.449 35.4691 656.524 33.6194 657.067 29.9539C657.312 28.3503 657.076 27.0903 656.37 26.2079C655.594 25.2389 654.219 24.7264 652.391 24.7264ZM653.021 30.161C652.723 32.2432 651.226 32.2432 649.778 32.2432H648.955L649.534 28.3546C649.55 28.2408 649.605 28.1371 649.687 28.0622C649.769 27.9874 649.874 27.9463 649.982 27.9464H650.36C651.345 27.9464 652.276 27.9464 652.757 28.5438C653.043 28.9001 653.13 29.4296 653.021 30.161ZM668.712 30.0939H666.099C665.99 30.0936 665.885 30.1346 665.803 30.2095C665.721 30.2844 665.666 30.3882 665.65 30.5021L665.534 31.2793L665.351 30.9976C664.785 30.1245 663.523 29.8326 662.263 29.8326C659.374 29.8326 656.907 32.1583 656.426 35.4207C656.177 37.0481 656.531 38.6042 657.399 39.6895C658.198 40.6873 659.336 41.103 660.693 41.103C663.021 41.103 664.312 39.5121 664.312 39.5121L664.195 40.2842C664.185 40.3534 664.189 40.4242 664.207 40.4916C664.224 40.559 664.256 40.6216 664.299 40.6748C664.342 40.7281 664.395 40.7708 664.455 40.8001C664.515 40.8293 664.58 40.8444 664.646 40.8442H667C667.181 40.8441 667.356 40.7754 667.493 40.6505C667.63 40.5256 667.721 40.3527 667.749 40.1629L669.163 30.6523C669.173 30.5832 669.169 30.5126 669.151 30.4453C669.133 30.3781 669.101 30.3159 669.058 30.2628C669.015 30.2098 668.962 30.1672 668.902 30.1381C668.843 30.1089 668.778 30.0939 668.712 30.0939ZM665.067 35.5022C664.816 37.0897 663.629 38.1554 662.117 38.1554C661.359 38.1554 660.751 37.8966 660.361 37.4062C659.975 36.9192 659.83 36.2259 659.951 35.4538C660.188 33.8799 661.392 32.7794 662.881 32.7794C663.624 32.7794 664.227 33.0416 664.625 33.5363C665.025 34.036 665.183 34.7335 665.067 35.5022ZM671.794 25.1346L669.553 40.2868C669.543 40.3557 669.547 40.4262 669.565 40.4934C669.583 40.5605 669.614 40.6228 669.657 40.6759C669.699 40.7289 669.752 40.7715 669.812 40.8008C669.871 40.83 669.936 40.8451 670.002 40.8451H672.255C672.629 40.8451 672.947 40.5566 673.005 40.1638L675.215 25.2847C675.225 25.2158 675.221 25.1453 675.203 25.078C675.185 25.0108 675.154 24.9485 675.111 24.8954C675.069 24.8423 675.016 24.7996 674.956 24.7703C674.897 24.741 674.832 24.7257 674.766 24.7256H672.243C672.135 24.726 672.03 24.7674 671.948 24.8423C671.866 24.9173 671.811 25.0209 671.794 25.1346Z" fill="#179BD7"/>
<path d="M582.352 43.7368L582.769 40.9181L581.839 40.8952H577.398L580.484 20.0963C580.494 20.0327 580.524 19.9748 580.57 19.9331C580.616 19.8913 580.675 19.8686 580.735 19.8689H588.224C590.71 19.8689 592.426 20.4187 593.322 21.5039C593.742 22.013 594.009 22.545 594.138 23.1305C594.274 23.7448 594.277 24.4787 594.144 25.3739L594.134 25.4392V26.0128L594.554 26.2656C594.875 26.4382 595.163 26.6717 595.405 26.9546C595.764 27.3899 595.996 27.9431 596.095 28.599C596.196 29.2735 596.162 30.0762 595.996 30.9849C595.805 32.0302 595.495 32.9407 595.077 33.6856C594.707 34.353 594.211 34.931 593.62 35.3826C593.064 35.8018 592.404 36.1199 591.657 36.3236C590.934 36.5238 590.109 36.6248 589.204 36.6248H588.622C588.205 36.6248 587.8 36.7843 587.482 37.0702C587.165 37.3592 586.954 37.7585 586.888 38.197L586.844 38.4507L586.107 43.4186L586.073 43.601C586.064 43.6587 586.049 43.6876 586.027 43.7071C586.005 43.7259 585.978 43.7364 585.95 43.7368H582.352Z" fill="#253B80"/>
<path d="M594.952 25.5054C594.93 25.6572 594.904 25.8125 594.875 25.972C593.888 31.3608 590.509 33.2223 586.194 33.2223H583.997C583.469 33.2223 583.024 33.6296 582.942 34.1828L581.817 41.7649L581.498 43.9141C581.486 43.9994 581.491 44.0865 581.513 44.1696C581.535 44.2527 581.573 44.3297 581.626 44.3953C581.679 44.4609 581.744 44.5137 581.818 44.5498C581.892 44.586 581.972 44.6047 582.053 44.6048H585.95C586.412 44.6048 586.804 44.2484 586.876 43.7648L586.915 43.5543L587.648 38.606L587.695 38.3345C587.767 37.8491 588.16 37.4928 588.622 37.4928H589.204C592.98 37.4928 595.936 35.8637 596.799 31.1495C597.16 29.1802 596.974 27.5358 596.019 26.3793C595.716 26.0216 595.355 25.7254 594.952 25.5054Z" fill="#179BD7"/>
<path d="M593.919 25.0675C593.604 24.9705 593.283 24.8948 592.958 24.8409C592.318 24.7362 591.67 24.686 591.022 24.6907H585.152C584.928 24.6905 584.712 24.7753 584.543 24.9297C584.373 25.084 584.261 25.2978 584.226 25.5324L582.978 33.9375L582.942 34.1827C582.981 33.9152 583.109 33.6712 583.302 33.4951C583.495 33.3189 583.742 33.2221 583.997 33.2222H586.194C590.509 33.2222 593.888 31.3598 594.875 25.9719C594.905 25.8124 594.93 25.6572 594.952 25.5053C594.691 25.36 594.42 25.2383 594.14 25.1413C594.067 25.1154 593.993 25.0908 593.919 25.0675Z" fill="#222D65"/>
<path d="M584.226 25.5325C584.261 25.2978 584.373 25.0839 584.542 24.9296C584.712 24.7753 584.928 24.6909 585.152 24.6916H591.022C591.717 24.6916 592.366 24.74 592.958 24.8418C593.359 24.9088 593.755 25.0089 594.141 25.1413C594.432 25.244 594.703 25.3653 594.953 25.5053C595.247 23.5139 594.95 22.1581 593.937 20.9303C592.82 19.5787 590.804 19 588.225 19H580.736C580.209 19 579.76 19.4073 579.678 19.9613L576.559 40.9741C576.544 41.0716 576.55 41.1714 576.575 41.2664C576.6 41.3615 576.644 41.4496 576.705 41.5248C576.765 41.5999 576.84 41.6603 576.924 41.7017C577.009 41.7432 577.101 41.7647 577.194 41.7648H581.817L582.978 33.9376L584.226 25.5325Z" fill="#253B80"/>
</g>
<g clip-path="url(#clip3)">
<path fill-rule="evenodd" clip-rule="evenodd" d="M797.867 40.679C792.404 44.8009 784.487 47.0001 777.67 47.0001C768.111 47.0001 759.506 43.3809 752.996 37.3614C752.485 36.888 752.943 36.2429 753.557 36.6116C760.582 40.7963 769.269 43.3139 778.242 43.3139C784.294 43.3139 790.952 42.032 797.073 39.3721C797.998 38.9699 798.771 39.992 797.867 40.679Z" fill="#FF9900"/>
<path fill-rule="evenodd" clip-rule="evenodd" d="M800.137 38.019C799.442 37.1058 795.522 37.5876 793.762 37.8012C793.226 37.8682 793.145 37.3907 793.627 37.0472C796.749 34.7977 801.872 35.447 802.47 36.201C803.067 36.9592 802.314 42.2163 799.38 44.7255C798.93 45.1109 798.501 44.9056 798.701 44.3946C799.36 42.7106 800.837 38.9364 800.137 38.019Z" fill="#FF9900"/>
<path fill-rule="evenodd" clip-rule="evenodd" d="M793.885 21.1668V18.9802C793.885 18.6493 794.131 18.4272 794.425 18.4272H803.988C804.295 18.4272 804.54 18.6534 804.54 18.9802V20.8526C804.536 21.1668 804.278 21.5773 803.82 22.2266L798.865 29.4693C800.706 29.4232 802.65 29.7038 804.319 30.6673C804.696 30.8851 804.798 31.2035 804.827 31.5177V33.8509C804.827 34.1693 804.483 34.5421 804.123 34.3494C801.181 32.7701 797.273 32.5984 794.02 34.3661C793.689 34.5504 793.341 34.1818 793.341 33.8635V31.6475C793.341 31.2915 793.345 30.6841 793.693 30.1437L799.434 21.7156H794.438C794.131 21.7156 793.885 21.4935 793.885 21.1668Z" fill="black"/>
<path fill-rule="evenodd" clip-rule="evenodd" d="M759.003 34.8101H756.094C755.816 34.7891 755.595 34.5755 755.574 34.3032V19.0178C755.574 18.712 755.824 18.469 756.135 18.469H758.848C759.13 18.4816 759.355 18.7036 759.375 18.9801V20.9782H759.429C760.136 19.0471 761.466 18.1465 763.258 18.1465C765.079 18.1465 766.217 19.0471 767.035 20.9782C767.739 19.0471 769.339 18.1465 771.053 18.1465C772.273 18.1465 773.606 18.6617 774.421 19.8179C775.341 21.1039 775.153 22.9721 775.153 24.61L775.149 34.2571C775.149 34.5629 774.899 34.8101 774.589 34.8101H771.683C771.393 34.7891 771.16 34.5503 771.16 34.2571V26.1557C771.16 25.5106 771.217 23.9021 771.078 23.2905C770.861 22.2642 770.21 21.9752 769.367 21.9752C768.664 21.9752 767.927 22.4569 767.628 23.2277C767.33 23.9984 767.358 25.2886 767.358 26.1557V34.2571C767.358 34.5629 767.109 34.8101 766.798 34.8101H763.893C763.598 34.7891 763.369 34.5503 763.369 34.2571L763.365 26.1557C763.365 24.4508 763.639 21.9417 761.573 21.9417C759.482 21.9417 759.564 24.388 759.564 26.1557V34.2571C759.564 34.5629 759.314 34.8101 759.003 34.8101" fill="black"/>
<path fill-rule="evenodd" clip-rule="evenodd" d="M812.773 18.1465C817.09 18.1465 819.426 21.9417 819.426 26.7673C819.426 31.4296 816.844 35.1284 812.773 35.1284C808.534 35.1284 806.226 31.3332 806.226 26.6039C806.226 21.8453 808.562 18.1465 812.773 18.1465ZM812.797 21.2672C810.653 21.2672 810.518 24.2581 810.518 26.1222C810.518 27.9905 810.49 31.9783 812.773 31.9783C815.027 31.9783 815.134 28.7612 815.134 26.8008C815.134 25.5106 815.081 23.9691 814.7 22.7459C814.373 21.6819 813.722 21.2672 812.797 21.2672Z" fill="black"/>
<path fill-rule="evenodd" clip-rule="evenodd" d="M825.024 34.8101H822.127C821.836 34.7891 821.603 34.5503 821.603 34.2571L821.599 18.9675C821.623 18.6869 821.865 18.469 822.159 18.469H824.856C825.109 18.4816 825.318 18.6575 825.375 18.8963V21.2337H825.429C826.243 19.1435 827.384 18.1465 829.394 18.1465C830.699 18.1465 831.971 18.6282 832.79 19.9477C833.551 21.1709 833.551 23.2277 833.551 24.7063V34.3283C833.518 34.5964 833.277 34.8101 832.99 34.8101H830.073C829.807 34.7891 829.586 34.588 829.557 34.3283V26.0259C829.557 24.3545 829.745 21.9081 827.736 21.9081C827.029 21.9081 826.378 22.3941 826.055 23.1313C825.646 24.0654 825.592 24.9954 825.592 26.0259V34.2571C825.588 34.5629 825.335 34.8101 825.024 34.8101" fill="black"/>
<path fill-rule="evenodd" clip-rule="evenodd" d="M786.262 27.5089C786.262 28.6692 786.291 29.6369 785.718 30.6673C785.256 31.5051 784.519 32.0204 783.705 32.0204C782.588 32.0204 781.933 31.1491 781.933 29.8631C781.933 27.3246 784.155 26.8638 786.262 26.8638V27.5089ZM789.196 34.7683C789.004 34.9442 788.726 34.9568 788.509 34.8395C787.543 34.0185 787.367 33.6373 786.839 32.854C785.243 34.5212 784.11 35.0196 782.044 35.0196C779.593 35.0196 777.69 33.4739 777.69 30.3783C777.69 27.9613 778.967 26.315 780.792 25.5108C782.371 24.7986 784.576 24.673 786.262 24.4761V24.0907C786.262 23.3828 786.315 22.545 785.906 21.9334C785.554 21.3847 784.875 21.1585 784.274 21.1585C783.165 21.1585 782.179 21.7407 781.937 22.9471C781.888 23.2152 781.696 23.4791 781.43 23.4917L778.611 23.1817C778.373 23.1273 778.107 22.9304 778.177 22.5576C778.823 19.0556 781.917 18 784.683 18C786.099 18 787.948 18.3854 789.065 19.4829C790.481 20.8359 790.346 22.6413 790.346 24.6059V29.2473C790.346 30.6422 790.911 31.2538 791.442 32.0078C791.627 32.2759 791.668 32.5984 791.43 32.7995C790.837 33.3064 789.781 34.2489 789.2 34.7767L789.196 34.7683" fill="black"/>
<path fill-rule="evenodd" clip-rule="evenodd" d="M748.123 27.5091C748.123 28.6695 748.152 29.6371 747.579 30.6676C747.116 31.5054 746.384 32.0206 745.566 32.0206C744.449 32.0206 743.798 31.1493 743.798 29.8633C743.798 27.3248 746.02 26.864 748.123 26.864V27.5091ZM751.057 34.7685C750.864 34.9445 750.586 34.957 750.369 34.8398C749.404 34.0187 749.232 33.6375 748.7 32.8542C747.104 34.5214 745.975 35.0199 743.904 35.0199C741.458 35.0199 739.551 33.4742 739.551 30.3785C739.551 27.9615 740.832 26.3153 742.652 25.511C744.232 24.7989 746.437 24.6732 748.123 24.4763V24.091C748.123 23.383 748.176 22.5452 747.771 21.9337C747.415 21.3849 746.736 21.1587 746.139 21.1587C745.03 21.1587 744.039 21.741 743.798 22.9474C743.749 23.2155 743.557 23.4794 743.295 23.4919L740.471 23.182C740.234 23.1275 739.972 22.9306 740.038 22.5578C740.688 19.0559 743.778 18.0002 746.544 18.0002C747.959 18.0002 749.809 18.3856 750.926 19.4831C752.342 20.8362 752.207 22.6416 752.207 24.6062V29.2475C752.207 30.6424 752.771 31.254 753.303 32.008C753.491 32.2761 753.532 32.5987 753.295 32.7997C752.702 33.3066 751.646 34.2491 751.065 34.7769L751.057 34.7685" fill="black"/>
</g>
<path d="M240.836 43.6609H236.503V32.9836H233.551V29.5072H236.503V27.0336C236.503 24.1023 237.808 22 242.13 22C243.044 22 244.479 22.1821 244.479 22.1821V25.4101H242.972C241.436 25.4101 240.836 25.8718 240.836 27.1483V29.5072H244.421L244.102 32.9836H240.836L240.836 43.6609ZM250.779 29.2294C250.716 29.2294 250.651 29.2317 250.587 29.2333C246.568 29.2333 244.73 32.2207 244.73 36.4615C244.73 41.8037 247.115 43.9418 250.618 43.9418C252.622 43.9418 253.939 43.1079 254.74 41.5518V43.6624H258.861V29.5087H254.74V31.6854C254.086 30.285 252.732 29.246 250.779 29.2294ZM251.827 32.5739C253.515 32.5739 254.527 33.7374 254.527 35.7165L254.531 37.7379C254.531 39.0718 253.695 40.6323 251.827 40.6323C248.955 40.6323 249.032 37.5676 249.032 36.5469C249.032 33.1133 250.562 32.5739 251.827 32.5739ZM260.526 36.5863C260.526 34.8664 260.442 29.2386 267.86 29.2386C270.838 29.2386 272.081 30.1745 272.081 30.1745L271.082 33.2382C271.082 33.2382 269.84 32.5623 268.222 32.5623C266.15 32.5623 264.827 33.7498 264.827 35.8392L264.83 37.3373C264.83 39.3449 266.106 40.6851 268.227 40.6851C269.701 40.6851 271.059 40.0028 271.059 40.0028L272.056 43.0026C272.056 43.0026 270.919 43.9443 267.881 43.9443C260.818 43.9443 260.526 38.8951 260.526 36.5863H260.526ZM296.248 29.2333C300.266 29.2333 302.133 32.2207 302.133 36.4615C302.133 41.8037 299.749 43.9418 296.245 43.9418C294.241 43.9418 292.759 43.108 291.959 41.5518V43.6624L287.889 43.6608V22.4303L292.21 22.0579V31.4936C292.834 29.8428 294.884 29.2333 296.248 29.2333H296.248ZM295.036 32.5739C293.349 32.5739 292.21 33.7374 292.21 35.7165L292.206 37.7379C292.204 39.0718 292.995 40.6323 295.036 40.6323C297.908 40.6323 297.831 37.5676 297.831 36.5469C297.831 33.1133 296.301 32.5739 295.036 32.5739ZM279.579 29.245C275.021 29.245 272.615 31.7011 272.615 36.0657V36.8766C272.615 42.5415 275.994 44 280.022 44C283.938 44 285.71 42.9175 285.71 42.9175L284.901 40.0349C284.901 40.0349 282.817 40.9116 280.54 40.9116C278.181 40.9116 277.166 40.3171 276.906 38.0756H286.055V35.763C286.055 31.0285 283.355 29.2449 279.579 29.2449L279.579 29.245ZM279.689 32.1315C281.266 32.1315 282.288 33.0877 282.232 35.3053H276.913C277.006 32.9713 278.108 32.1316 279.689 32.1316V32.1315ZM310.749 29.2256C306.069 29.2256 303.605 31.8325 303.605 36.5041C303.605 42.9139 307.853 43.9457 310.757 43.9457C315.009 43.9457 317.838 41.6829 317.838 36.5623C317.838 31.2327 314.658 29.2256 310.749 29.2256ZM310.69 32.5855C312.748 32.5855 313.564 34.1079 313.564 35.8408V37.3306C313.564 39.4298 312.423 40.644 310.683 40.644C309.055 40.644 307.911 39.5083 307.911 37.3306V35.8408C307.911 33.5183 309.272 32.5855 310.69 32.5855ZM326.447 29.2256C321.766 29.2256 319.303 31.8325 319.303 36.5041C319.303 42.9139 323.55 43.9457 326.454 43.9457C330.707 43.9457 333.536 41.6829 333.536 36.5623C333.536 31.2327 330.355 29.2256 326.447 29.2256ZM326.388 32.5855C328.446 32.5855 329.261 34.1079 329.261 35.8408V37.3306C329.261 39.4298 328.12 40.644 326.38 40.644C324.752 40.644 323.609 39.5083 323.609 37.3306V35.8408C323.609 33.5183 324.97 32.5855 326.388 32.5855ZM335.169 43.6609V22.4303L339.502 22.058V36.288L343.802 29.5074H348.378L343.893 36.5302L348.551 43.6609H343.961L339.502 36.7369V43.6609H335.169Z" fill="#1877F2"/>
<defs>
<clipPath id="clip0">
<rect width="38" height="28" fill="white" transform="translate(130.551 19)"/>
</clipPath>
<clipPath id="clip1">
<rect width="101" height="31" fill="white" transform="translate(411.551 17)"/>
</clipPath>
<clipPath id="clip2">
<rect width="99" height="28" fill="white" transform="translate(576.551 19)"/>
</clipPath>
<clipPath id="clip3">
<rect width="94" height="29" fill="white" transform="translate(739.551 18)"/>
</clipPath>
</defs>
</svg>
