<svg width="23" height="23" viewBox="0 0 23 23" fill="none" xmlns="http://www.w3.org/2000/svg">
<g clip-path="url(#clip0)">
<path d="M22.1684 2.38596C21.7666 2.38596 12.8513 2.38596 12.4526 2.38596V1.45728C12.4526 1.05487 12.1263 0.728577 11.7239 0.728577C11.3214 0.728577 10.9952 1.05482 10.9952 1.45728V2.38596C10.5965 2.38596 1.68115 2.38596 1.27939 2.38596C0.877029 2.38596 0.550781 2.7122 0.550781 3.11461C0.550781 3.51702 0.877029 3.84331 1.27948 3.84331H1.76525L1.76525 14.671C1.76525 15.0734 2.0915 15.3997 2.49395 15.3997L20.954 15.3997C21.3564 15.3997 21.6827 15.0735 21.6827 14.671V3.84331H22.1684C22.5708 3.84331 22.8971 3.51706 22.8971 3.11461C22.8971 2.71216 22.5708 2.38596 22.1684 2.38596Z" fill="#04263D"/>
<path d="M15.4043 20.5701L13.5978 16.8572H11.9771L14.0939 21.2078C14.27 21.5698 14.7062 21.7203 15.0679 21.5442C15.4298 21.3682 15.5804 20.932 15.4043 20.5701Z" fill="#04263D"/>
<path d="M9.85004 16.8572L8.04352 20.5701C7.86742 20.932 8.01812 21.3682 8.37998 21.5442C8.74185 21.7203 9.17795 21.5696 9.35405 21.2078L11.4708 16.8572H9.85004Z" fill="#04263D"/>
</g>
<defs>
<clipPath id="clip0">
<rect width="22.3463" height="22.3463" fill="white" transform="translate(0.550781)"/>
</clipPath>
</defs>
</svg>
