<svg width="25" height="24" viewBox="0 0 25 24" fill="none" xmlns="http://www.w3.org/2000/svg">
<g clip-path="url(#clip0)">
<path d="M13.8931 18.7231H3.13147C1.71207 18.7231 0.550751 17.5618 0.550751 16.1424V7.4454C0.550751 6.02601 1.71207 4.86468 3.13147 4.86468H13.8931C15.3125 4.86468 16.4738 6.02601 16.4738 7.4454V16.1424C16.4738 17.5876 15.3125 18.7231 13.8931 18.7231Z" fill="#04263D"/>
<path d="M22.2288 17.3039C22.0739 17.2781 21.9191 17.2007 21.7901 17.1232L17.7641 14.8006V8.81333L21.8159 6.49069C22.5643 6.05197 23.4933 6.31004 23.932 7.05845C24.0611 7.29071 24.1385 7.54878 24.1385 7.83266V15.8071C24.1385 16.7619 23.2353 17.5362 22.2288 17.3039Z" fill="#04263D"/>
</g>
<defs>
<clipPath id="clip0">
<rect width="23.5878" height="23.5878" fill="white" transform="matrix(1 0 0 -1 0.550781 23.5879)"/>
</clipPath>
</defs>
</svg>
