<svg width="22" height="21" viewBox="0 0 22 21" fill="none" xmlns="http://www.w3.org/2000/svg">
<g clip-path="url(#clip0)">
<path d="M20.5788 8.50571L18.1823 7.91759C18.0503 7.49751 17.8823 7.08942 17.6782 6.69335L18.9025 4.65294C19.0465 4.41289 19.0105 4.11283 18.8185 3.92079L17.1141 2.21645C16.9221 2.02441 16.622 1.9884 16.382 2.13243L14.3416 3.35667C13.9455 3.15263 13.5374 2.9846 13.1173 2.85257L12.5412 0.456092C12.4692 0.192039 12.2291 0 11.9531 0H9.55259C9.27653 0 9.03649 0.192039 8.96447 0.456092L8.38836 2.85257C7.96827 2.9846 7.56019 3.15263 7.16411 3.35667L5.1237 2.13243C4.88365 1.9884 4.58359 2.02441 4.39155 2.21645L2.68721 3.92079C2.49517 4.11283 2.45916 4.41289 2.60319 4.65294L3.82744 6.69335C3.6234 7.08942 3.45536 7.49751 3.32334 7.91759L1.00687 8.50571C0.74282 8.56572 0.550781 8.80577 0.550781 9.08182V11.4823C0.550781 11.7584 0.74282 11.9984 1.00687 12.0584L3.32334 12.6465C3.45536 13.0666 3.6234 13.4747 3.82744 13.8708L2.60319 15.9112C2.45916 16.1512 2.49517 16.4513 2.68721 16.6433L4.39155 18.3477C4.58359 18.5397 4.88365 18.5757 5.1237 18.4317L7.16411 17.2075C7.56019 17.4115 7.96827 17.5795 8.38836 17.7116L8.96447 20.028C9.03649 20.2921 9.27653 20.4841 9.55259 20.4841H11.9531C12.2291 20.4841 12.4692 20.2921 12.5412 20.028L13.1173 17.7116C13.5374 17.5795 13.9455 17.4115 14.3416 17.2075L16.382 18.4317C16.622 18.5757 16.9221 18.5397 17.1141 18.3477L18.8185 16.6433C19.0105 16.4513 19.0465 16.1512 18.9025 15.9112L17.6782 13.8708C17.8823 13.4747 18.0503 13.0666 18.1823 12.6465L20.5788 12.0584C20.8429 11.9984 21.0349 11.7584 21.0349 11.4823V9.08182C21.0349 8.80577 20.8429 8.56572 20.5788 8.50571ZM10.7528 13.2827C9.0965 13.2827 7.75223 11.9384 7.75223 10.2821C7.75223 8.62573 9.0965 7.28146 10.7528 7.28146C12.4092 7.28146 13.7534 8.62573 13.7534 10.2821C13.7534 11.9384 12.4092 13.2827 10.7528 13.2827Z" fill="#04263D"/>
</g>
<defs>
<clipPath id="clip0">
<rect width="20.4841" height="20.4841" fill="white" transform="translate(0.550781)"/>
</clipPath>
</defs>
</svg>
